<mxfile host="app.diagrams.net" modified="2024-04-14T17:31:22.340Z" agent="Mozilla/5.0 (Windows NT 10.0; Win64; x64) AppleWebKit/537.36 (KHTML, like Gecko) Chrome/123.0.0.0 Safari/537.36 Edg/123.0.0.0" etag="0lWps_3e7yBKgOTQb7oN" version="24.2.5" type="github">
  <diagram name="Page-1" id="b520641d-4fe3-3701-9064-5fc419738815">
    <mxGraphModel dx="1677" dy="1132" grid="0" gridSize="10" guides="1" tooltips="1" connect="1" arrows="1" fold="1" page="1" pageScale="1" pageWidth="1100" pageHeight="850" background="none" math="0" shadow="0">
      <root>
        <mxCell id="0" />
        <mxCell id="1" parent="0" />
        <mxCell id="2debaab0fafb2da2-10" value="Object" style="html=1;rounded=0;shadow=0;comic=0;labelBackgroundColor=none;strokeWidth=2;fontFamily=Verdana;fontSize=12;align=center;shape=mxgraph.ios7ui.horLines;" parent="1" vertex="1">
          <mxGeometry x="172.5" y="440" width="135" height="50" as="geometry" />
        </mxCell>
        <mxCell id="21ea969265ad0168-6" value="Function" style="swimlane;html=1;fontStyle=0;childLayout=stackLayout;horizontal=1;startSize=26;fillColor=#e0e0e0;horizontalStack=0;resizeParent=1;resizeLast=0;collapsible=1;marginBottom=0;swimlaneFillColor=#ffffff;align=center;rounded=1;shadow=0;comic=0;labelBackgroundColor=none;strokeWidth=1;fontFamily=Verdana;fontSize=12" parent="1" vertex="1">
          <mxGeometry x="160" y="74" width="160" height="110" as="geometry" />
        </mxCell>
        <mxCell id="21ea969265ad0168-7" value="Row 1" style="text;html=1;strokeColor=none;fillColor=none;spacingLeft=4;spacingRight=4;whiteSpace=wrap;overflow=hidden;rotatable=0;points=[[0,0.5],[1,0.5]];portConstraint=eastwest;" parent="21ea969265ad0168-6" vertex="1">
          <mxGeometry y="26" width="160" height="26" as="geometry" />
        </mxCell>
        <mxCell id="21ea969265ad0168-8" value="Row 2" style="text;html=1;strokeColor=none;fillColor=none;spacingLeft=4;spacingRight=4;whiteSpace=wrap;overflow=hidden;rotatable=0;points=[[0,0.5],[1,0.5]];portConstraint=eastwest;" parent="21ea969265ad0168-6" vertex="1">
          <mxGeometry y="52" width="160" height="26" as="geometry" />
        </mxCell>
        <mxCell id="21ea969265ad0168-9" value="Row 3" style="text;html=1;strokeColor=none;fillColor=none;spacingLeft=4;spacingRight=4;whiteSpace=wrap;overflow=hidden;rotatable=0;points=[[0,0.5],[1,0.5]];portConstraint=eastwest;" parent="21ea969265ad0168-6" vertex="1">
          <mxGeometry y="78" width="160" height="26" as="geometry" />
        </mxCell>
        <mxCell id="21ea969265ad0168-10" value="Function" style="swimlane;html=1;fontStyle=0;childLayout=stackLayout;horizontal=1;startSize=26;fillColor=#e0e0e0;horizontalStack=0;resizeParent=1;resizeLast=0;collapsible=1;marginBottom=0;swimlaneFillColor=#ffffff;align=center;rounded=1;shadow=0;comic=0;labelBackgroundColor=none;strokeWidth=1;fontFamily=Verdana;fontSize=12" parent="1" vertex="1">
          <mxGeometry x="560" y="74" width="160" height="130" as="geometry" />
        </mxCell>
        <mxCell id="21ea969265ad0168-11" value="Row 1" style="text;html=1;strokeColor=none;fillColor=none;spacingLeft=4;spacingRight=4;whiteSpace=wrap;overflow=hidden;rotatable=0;points=[[0,0.5],[1,0.5]];portConstraint=eastwest;" parent="21ea969265ad0168-10" vertex="1">
          <mxGeometry y="26" width="160" height="26" as="geometry" />
        </mxCell>
        <mxCell id="21ea969265ad0168-12" value="Row 2" style="text;html=1;strokeColor=none;fillColor=none;spacingLeft=4;spacingRight=4;whiteSpace=wrap;overflow=hidden;rotatable=0;points=[[0,0.5],[1,0.5]];portConstraint=eastwest;" parent="21ea969265ad0168-10" vertex="1">
          <mxGeometry y="52" width="160" height="26" as="geometry" />
        </mxCell>
        <mxCell id="21ea969265ad0168-52" value="Row 3" style="text;html=1;strokeColor=none;fillColor=none;spacingLeft=4;spacingRight=4;whiteSpace=wrap;overflow=hidden;rotatable=0;points=[[0,0.5],[1,0.5]];portConstraint=eastwest;" parent="21ea969265ad0168-10" vertex="1">
          <mxGeometry y="78" width="160" height="26" as="geometry" />
        </mxCell>
        <mxCell id="21ea969265ad0168-13" value="Row 4" style="text;html=1;strokeColor=none;fillColor=none;spacingLeft=4;spacingRight=4;whiteSpace=wrap;overflow=hidden;rotatable=0;points=[[0,0.5],[1,0.5]];portConstraint=eastwest;" parent="21ea969265ad0168-10" vertex="1">
          <mxGeometry y="104" width="160" height="26" as="geometry" />
        </mxCell>
        <mxCell id="21ea969265ad0168-14" value="Function" style="swimlane;html=1;fontStyle=0;childLayout=stackLayout;horizontal=1;startSize=26;fillColor=#e0e0e0;horizontalStack=0;resizeParent=1;resizeLast=0;collapsible=1;marginBottom=0;swimlaneFillColor=#ffffff;align=center;rounded=1;shadow=0;comic=0;labelBackgroundColor=none;strokeWidth=1;fontFamily=Verdana;fontSize=12" parent="1" vertex="1">
          <mxGeometry x="160" y="266" width="160" height="110" as="geometry" />
        </mxCell>
        <mxCell id="21ea969265ad0168-15" value="Row 1" style="text;html=1;strokeColor=none;fillColor=none;spacingLeft=4;spacingRight=4;whiteSpace=wrap;overflow=hidden;rotatable=0;points=[[0,0.5],[1,0.5]];portConstraint=eastwest;" parent="21ea969265ad0168-14" vertex="1">
          <mxGeometry y="26" width="160" height="26" as="geometry" />
        </mxCell>
        <mxCell id="21ea969265ad0168-16" value="Row 2" style="text;html=1;strokeColor=none;fillColor=none;spacingLeft=4;spacingRight=4;whiteSpace=wrap;overflow=hidden;rotatable=0;points=[[0,0.5],[1,0.5]];portConstraint=eastwest;" parent="21ea969265ad0168-14" vertex="1">
          <mxGeometry y="52" width="160" height="26" as="geometry" />
        </mxCell>
        <mxCell id="21ea969265ad0168-17" value="Row 3" style="text;html=1;strokeColor=none;fillColor=none;spacingLeft=4;spacingRight=4;whiteSpace=wrap;overflow=hidden;rotatable=0;points=[[0,0.5],[1,0.5]];portConstraint=eastwest;" parent="21ea969265ad0168-14" vertex="1">
          <mxGeometry y="78" width="160" height="26" as="geometry" />
        </mxCell>
        <mxCell id="21ea969265ad0168-18" value="Function" style="swimlane;html=1;fontStyle=0;childLayout=stackLayout;horizontal=1;startSize=26;fillColor=#e0e0e0;horizontalStack=0;resizeParent=1;resizeLast=0;collapsible=1;marginBottom=0;swimlaneFillColor=#ffffff;align=center;rounded=1;shadow=0;comic=0;labelBackgroundColor=none;strokeWidth=1;fontFamily=Verdana;fontSize=12" parent="1" vertex="1">
          <mxGeometry x="160" y="570" width="160" height="140" as="geometry" />
        </mxCell>
        <mxCell id="21ea969265ad0168-19" value="Row 1" style="text;html=1;strokeColor=none;fillColor=none;spacingLeft=4;spacingRight=4;whiteSpace=wrap;overflow=hidden;rotatable=0;points=[[0,0.5],[1,0.5]];portConstraint=eastwest;" parent="21ea969265ad0168-18" vertex="1">
          <mxGeometry y="26" width="160" height="26" as="geometry" />
        </mxCell>
        <mxCell id="21ea969265ad0168-20" value="Row 2" style="text;html=1;strokeColor=none;fillColor=none;spacingLeft=4;spacingRight=4;whiteSpace=wrap;overflow=hidden;rotatable=0;points=[[0,0.5],[1,0.5]];portConstraint=eastwest;" parent="21ea969265ad0168-18" vertex="1">
          <mxGeometry y="52" width="160" height="26" as="geometry" />
        </mxCell>
        <mxCell id="21ea969265ad0168-51" value="Row 3" style="text;html=1;strokeColor=none;fillColor=none;spacingLeft=4;spacingRight=4;whiteSpace=wrap;overflow=hidden;rotatable=0;points=[[0,0.5],[1,0.5]];portConstraint=eastwest;" parent="21ea969265ad0168-18" vertex="1">
          <mxGeometry y="78" width="160" height="26" as="geometry" />
        </mxCell>
        <mxCell id="21ea969265ad0168-21" value="Row 4" style="text;html=1;strokeColor=none;fillColor=none;spacingLeft=4;spacingRight=4;whiteSpace=wrap;overflow=hidden;rotatable=0;points=[[0,0.5],[1,0.5]];portConstraint=eastwest;" parent="21ea969265ad0168-18" vertex="1">
          <mxGeometry y="104" width="160" height="26" as="geometry" />
        </mxCell>
        <mxCell id="21ea969265ad0168-22" value="Function" style="swimlane;html=1;fontStyle=0;childLayout=stackLayout;horizontal=1;startSize=26;fillColor=#e0e0e0;horizontalStack=0;resizeParent=1;resizeLast=0;collapsible=1;marginBottom=0;swimlaneFillColor=#ffffff;align=center;rounded=1;shadow=0;comic=0;labelBackgroundColor=none;strokeWidth=1;fontFamily=Verdana;fontSize=12" parent="1" vertex="1">
          <mxGeometry x="560" y="266" width="160" height="84" as="geometry" />
        </mxCell>
        <mxCell id="21ea969265ad0168-23" value="Row 1" style="text;html=1;strokeColor=none;fillColor=none;spacingLeft=4;spacingRight=4;whiteSpace=wrap;overflow=hidden;rotatable=0;points=[[0,0.5],[1,0.5]];portConstraint=eastwest;" parent="21ea969265ad0168-22" vertex="1">
          <mxGeometry y="26" width="160" height="26" as="geometry" />
        </mxCell>
        <mxCell id="21ea969265ad0168-24" value="Row 2" style="text;html=1;strokeColor=none;fillColor=none;spacingLeft=4;spacingRight=4;whiteSpace=wrap;overflow=hidden;rotatable=0;points=[[0,0.5],[1,0.5]];portConstraint=eastwest;" parent="21ea969265ad0168-22" vertex="1">
          <mxGeometry y="52" width="160" height="26" as="geometry" />
        </mxCell>
        <mxCell id="21ea969265ad0168-26" value="Function" style="swimlane;html=1;fontStyle=0;childLayout=stackLayout;horizontal=1;startSize=26;fillColor=#e0e0e0;horizontalStack=0;resizeParent=1;resizeLast=0;collapsible=1;marginBottom=0;swimlaneFillColor=#ffffff;align=center;rounded=1;shadow=0;comic=0;labelBackgroundColor=none;strokeWidth=1;fontFamily=Verdana;fontSize=12" parent="1" vertex="1">
          <mxGeometry x="560" y="570" width="160" height="110" as="geometry" />
        </mxCell>
        <mxCell id="21ea969265ad0168-27" value="Row 1" style="text;html=1;strokeColor=none;fillColor=none;spacingLeft=4;spacingRight=4;whiteSpace=wrap;overflow=hidden;rotatable=0;points=[[0,0.5],[1,0.5]];portConstraint=eastwest;" parent="21ea969265ad0168-26" vertex="1">
          <mxGeometry y="26" width="160" height="26" as="geometry" />
        </mxCell>
        <mxCell id="21ea969265ad0168-28" value="Row 2" style="text;html=1;strokeColor=none;fillColor=none;spacingLeft=4;spacingRight=4;whiteSpace=wrap;overflow=hidden;rotatable=0;points=[[0,0.5],[1,0.5]];portConstraint=eastwest;" parent="21ea969265ad0168-26" vertex="1">
          <mxGeometry y="52" width="160" height="26" as="geometry" />
        </mxCell>
        <mxCell id="21ea969265ad0168-29" value="Row 3" style="text;html=1;strokeColor=none;fillColor=none;spacingLeft=4;spacingRight=4;whiteSpace=wrap;overflow=hidden;rotatable=0;points=[[0,0.5],[1,0.5]];portConstraint=eastwest;" parent="21ea969265ad0168-26" vertex="1">
          <mxGeometry y="78" width="160" height="26" as="geometry" />
        </mxCell>
        <mxCell id="21ea969265ad0168-30" value="Object" style="html=1;rounded=0;shadow=0;comic=0;labelBackgroundColor=none;strokeWidth=2;fontFamily=Verdana;fontSize=12;align=center;shape=mxgraph.ios7ui.horLines;" parent="1" vertex="1">
          <mxGeometry x="380" y="440" width="135" height="50" as="geometry" />
        </mxCell>
        <mxCell id="21ea969265ad0168-31" style="edgeStyle=none;html=1;labelBackgroundColor=none;startFill=0;startSize=8;endFill=1;endSize=8;fontFamily=Verdana;fontSize=12;" parent="1" source="21ea969265ad0168-18" target="2debaab0fafb2da2-10" edge="1">
          <mxGeometry relative="1" as="geometry" />
        </mxCell>
        <mxCell id="21ea969265ad0168-32" style="edgeStyle=none;html=1;labelBackgroundColor=none;startFill=0;startSize=8;endFill=1;endSize=8;fontFamily=Verdana;fontSize=12;" parent="1" source="2debaab0fafb2da2-10" target="21ea969265ad0168-14" edge="1">
          <mxGeometry relative="1" as="geometry" />
        </mxCell>
        <mxCell id="21ea969265ad0168-33" style="edgeStyle=orthogonalEdgeStyle;html=1;labelBackgroundColor=none;startFill=0;startSize=8;endFill=1;endSize=8;fontFamily=Verdana;fontSize=12;exitX=1;exitY=0.25;entryX=1;entryY=0.5;" parent="1" source="21ea969265ad0168-18" target="21ea969265ad0168-17" edge="1">
          <mxGeometry relative="1" as="geometry">
            <Array as="points">
              <mxPoint x="350" y="605" />
              <mxPoint x="350" y="357" />
            </Array>
          </mxGeometry>
        </mxCell>
        <mxCell id="21ea969265ad0168-34" value="" style="edgeStyle=orthogonalEdgeStyle;html=1;labelBackgroundColor=none;startFill=0;startSize=8;endFill=1;endSize=8;fontFamily=Verdana;fontSize=12;" parent="1" source="21ea969265ad0168-30" target="21ea969265ad0168-27" edge="1">
          <mxGeometry x="-0.1342" y="32" relative="1" as="geometry">
            <mxPoint as="offset" />
          </mxGeometry>
        </mxCell>
        <mxCell id="21ea969265ad0168-35" style="edgeStyle=orthogonalEdgeStyle;html=1;labelBackgroundColor=none;startFill=0;startSize=8;endFill=1;endSize=8;fontFamily=Verdana;fontSize=12;" parent="1" source="21ea969265ad0168-14" target="21ea969265ad0168-30" edge="1">
          <mxGeometry relative="1" as="geometry">
            <Array as="points">
              <mxPoint x="448" y="340" />
            </Array>
          </mxGeometry>
        </mxCell>
        <mxCell id="21ea969265ad0168-36" style="edgeStyle=orthogonalEdgeStyle;html=1;labelBackgroundColor=none;startFill=0;startSize=8;endFill=1;endSize=8;fontFamily=Verdana;fontSize=12;" parent="1" source="21ea969265ad0168-6" target="21ea969265ad0168-14" edge="1">
          <mxGeometry relative="1" as="geometry" />
        </mxCell>
        <mxCell id="21ea969265ad0168-37" style="edgeStyle=orthogonalEdgeStyle;html=1;labelBackgroundColor=none;startFill=0;startSize=8;endFill=1;endSize=8;fontFamily=Verdana;fontSize=12;" parent="1" source="21ea969265ad0168-26" target="21ea969265ad0168-22" edge="1">
          <mxGeometry relative="1" as="geometry" />
        </mxCell>
        <mxCell id="21ea969265ad0168-38" style="edgeStyle=orthogonalEdgeStyle;html=1;labelBackgroundColor=none;startFill=0;startSize=8;endFill=1;endSize=8;fontFamily=Verdana;fontSize=12;" parent="1" source="21ea969265ad0168-10" target="21ea969265ad0168-22" edge="1">
          <mxGeometry relative="1" as="geometry" />
        </mxCell>
        <mxCell id="21ea969265ad0168-39" style="edgeStyle=orthogonalEdgeStyle;html=1;entryX=0;entryY=0.5;labelBackgroundColor=none;startFill=0;startSize=8;endFill=1;endSize=8;fontFamily=Verdana;fontSize=12;exitX=1;exitY=0.5;" parent="1" source="21ea969265ad0168-8" target="21ea969265ad0168-12" edge="1">
          <mxGeometry relative="1" as="geometry">
            <Array as="points" />
          </mxGeometry>
        </mxCell>
        <mxCell id="21ea969265ad0168-40" style="edgeStyle=orthogonalEdgeStyle;html=1;exitX=0;exitY=0.5;entryX=1;entryY=0.5;labelBackgroundColor=none;startFill=0;startSize=8;endFill=1;endSize=8;fontFamily=Verdana;fontSize=12;" parent="1" source="21ea969265ad0168-11" target="21ea969265ad0168-7" edge="1">
          <mxGeometry relative="1" as="geometry" />
        </mxCell>
        <mxCell id="21ea969265ad0168-41" style="edgeStyle=orthogonalEdgeStyle;html=1;exitX=1;exitY=0.5;entryX=0;entryY=0.5;labelBackgroundColor=none;startFill=0;startSize=8;endFill=1;endSize=8;fontFamily=Verdana;fontSize=12;" parent="1" source="21ea969265ad0168-9" target="21ea969265ad0168-23" edge="1">
          <mxGeometry relative="1" as="geometry" />
        </mxCell>
        <mxCell id="21ea969265ad0168-42" style="edgeStyle=orthogonalEdgeStyle;html=1;exitX=1;exitY=0.5;entryX=0;entryY=0.5;labelBackgroundColor=none;startFill=0;startSize=8;endFill=1;endSize=8;fontFamily=Verdana;fontSize=12;" parent="1" source="21ea969265ad0168-16" target="21ea969265ad0168-24" edge="1">
          <mxGeometry relative="1" as="geometry">
            <Array as="points" />
          </mxGeometry>
        </mxCell>
        <mxCell id="21ea969265ad0168-43" style="edgeStyle=orthogonalEdgeStyle;html=1;labelBackgroundColor=none;startFill=0;startSize=8;endFill=1;endSize=8;fontFamily=Verdana;fontSize=12;" parent="1" source="21ea969265ad0168-24" edge="1">
          <mxGeometry relative="1" as="geometry">
            <mxPoint x="880" y="331" as="targetPoint" />
          </mxGeometry>
        </mxCell>
        <mxCell id="21ea969265ad0168-44" style="edgeStyle=orthogonalEdgeStyle;html=1;exitX=1;exitY=0.5;labelBackgroundColor=none;startFill=0;startSize=8;endFill=1;endSize=8;fontFamily=Verdana;fontSize=12;" parent="1" source="21ea969265ad0168-27" edge="1">
          <mxGeometry relative="1" as="geometry">
            <mxPoint x="880" y="609" as="targetPoint" />
          </mxGeometry>
        </mxCell>
        <mxCell id="21ea969265ad0168-45" style="edgeStyle=orthogonalEdgeStyle;html=1;labelBackgroundColor=none;startFill=0;startSize=8;endFill=1;endSize=8;fontFamily=Verdana;fontSize=12;entryX=1;entryY=0.5;" parent="1" target="21ea969265ad0168-28" edge="1">
          <mxGeometry relative="1" as="geometry">
            <mxPoint x="890" y="619" as="targetPoint" />
            <mxPoint x="880" y="635" as="sourcePoint" />
            <Array as="points">
              <mxPoint x="880" y="635" />
            </Array>
          </mxGeometry>
        </mxCell>
        <mxCell id="21ea969265ad0168-46" style="edgeStyle=orthogonalEdgeStyle;html=1;labelBackgroundColor=none;startFill=0;startSize=8;endFill=1;endSize=8;fontFamily=Verdana;fontSize=12;entryX=1;entryY=0.5;" parent="1" target="21ea969265ad0168-29" edge="1">
          <mxGeometry relative="1" as="geometry">
            <mxPoint x="730.1904761904761" y="645.0952380952381" as="targetPoint" />
            <mxPoint x="880" y="661" as="sourcePoint" />
            <Array as="points">
              <mxPoint x="800" y="661" />
              <mxPoint x="800" y="661" />
            </Array>
          </mxGeometry>
        </mxCell>
        <mxCell id="21ea969265ad0168-47" style="edgeStyle=orthogonalEdgeStyle;html=1;exitX=1;exitY=0.5;labelBackgroundColor=none;startFill=0;startSize=8;endFill=1;endSize=8;fontFamily=Verdana;fontSize=12;" parent="1" source="21ea969265ad0168-11" edge="1">
          <mxGeometry relative="1" as="geometry">
            <mxPoint x="880" y="113" as="targetPoint" />
          </mxGeometry>
        </mxCell>
        <mxCell id="21ea969265ad0168-48" style="edgeStyle=orthogonalEdgeStyle;html=1;exitX=1;exitY=0.5;labelBackgroundColor=none;startFill=0;startSize=8;endFill=1;endSize=8;fontFamily=Verdana;fontSize=12;" parent="1" source="21ea969265ad0168-12" edge="1">
          <mxGeometry relative="1" as="geometry">
            <mxPoint x="880" y="139" as="targetPoint" />
          </mxGeometry>
        </mxCell>
        <mxCell id="21ea969265ad0168-49" style="edgeStyle=orthogonalEdgeStyle;html=1;exitX=1;exitY=0.5;labelBackgroundColor=none;startFill=0;startSize=8;endFill=1;endSize=8;fontFamily=Verdana;fontSize=12;" parent="1" source="21ea969265ad0168-52" edge="1">
          <mxGeometry relative="1" as="geometry">
            <mxPoint x="880" y="165" as="targetPoint" />
            <Array as="points" />
          </mxGeometry>
        </mxCell>
        <mxCell id="21ea969265ad0168-50" style="edgeStyle=elbowEdgeStyle;html=1;labelBackgroundColor=none;startFill=0;startSize=8;endFill=1;endSize=8;fontFamily=Verdana;fontSize=12;elbow=vertical;entryX=1.011;entryY=0.152;entryPerimeter=0;" parent="1" target="21ea969265ad0168-10" edge="1">
          <mxGeometry relative="1" as="geometry">
            <mxPoint x="740" y="89" as="targetPoint" />
            <mxPoint x="880" y="94" as="sourcePoint" />
            <Array as="points">
              <mxPoint x="810" y="94" />
            </Array>
          </mxGeometry>
        </mxCell>
        <mxCell id="RnXoLSFv5eLRuYZo5d7v-13" style="edgeStyle=orthogonalEdgeStyle;orthogonalLoop=1;jettySize=auto;html=1;exitX=0;exitY=0;exitDx=0;exitDy=0;entryX=1.008;entryY=0.392;entryDx=0;entryDy=0;entryPerimeter=0;curved=1;" parent="1" source="RnXoLSFv5eLRuYZo5d7v-1" target="RnXoLSFv5eLRuYZo5d7v-2" edge="1">
          <mxGeometry relative="1" as="geometry">
            <Array as="points">
              <mxPoint x="628" y="1194" />
            </Array>
          </mxGeometry>
        </mxCell>
        <mxCell id="RnXoLSFv5eLRuYZo5d7v-17" value="成绩单" style="edgeLabel;html=1;align=center;verticalAlign=middle;resizable=0;points=[];" parent="RnXoLSFv5eLRuYZo5d7v-13" vertex="1" connectable="0">
          <mxGeometry x="0.4006" y="-1" relative="1" as="geometry">
            <mxPoint as="offset" />
          </mxGeometry>
        </mxCell>
        <mxCell id="RnXoLSFv5eLRuYZo5d7v-14" value="成绩" style="edgeStyle=orthogonalEdgeStyle;orthogonalLoop=1;jettySize=auto;html=1;exitX=0;exitY=0.25;exitDx=0;exitDy=0;entryX=1;entryY=0;entryDx=0;entryDy=0;curved=1;" parent="1" source="RnXoLSFv5eLRuYZo5d7v-6" target="RnXoLSFv5eLRuYZo5d7v-1" edge="1">
          <mxGeometry relative="1" as="geometry">
            <Array as="points">
              <mxPoint x="712" y="1185" />
            </Array>
          </mxGeometry>
        </mxCell>
        <mxCell id="RnXoLSFv5eLRuYZo5d7v-18" style="edgeStyle=orthogonalEdgeStyle;orthogonalLoop=1;jettySize=auto;html=1;exitX=0;exitY=0;exitDx=0;exitDy=0;entryX=1;entryY=0;entryDx=0;entryDy=0;curved=1;" parent="1" source="RnXoLSFv5eLRuYZo5d7v-1" target="RnXoLSFv5eLRuYZo5d7v-2" edge="1">
          <mxGeometry relative="1" as="geometry">
            <Array as="points">
              <mxPoint x="628" y="1170" />
            </Array>
          </mxGeometry>
        </mxCell>
        <mxCell id="RnXoLSFv5eLRuYZo5d7v-19" value="课程表" style="edgeLabel;html=1;align=center;verticalAlign=middle;resizable=0;points=[];" parent="RnXoLSFv5eLRuYZo5d7v-18" vertex="1" connectable="0">
          <mxGeometry x="0.1016" y="11" relative="1" as="geometry">
            <mxPoint as="offset" />
          </mxGeometry>
        </mxCell>
        <mxCell id="RnXoLSFv5eLRuYZo5d7v-1" value="选课系统" style="ellipse;whiteSpace=wrap;html=1;" parent="1" vertex="1">
          <mxGeometry x="610" y="1215" width="120" height="60" as="geometry" />
        </mxCell>
        <mxCell id="RnXoLSFv5eLRuYZo5d7v-11" value="所选课程" style="edgeStyle=orthogonalEdgeStyle;orthogonalLoop=1;jettySize=auto;html=1;exitX=1;exitY=0.75;exitDx=0;exitDy=0;entryX=0;entryY=0.5;entryDx=0;entryDy=0;curved=1;" parent="1" source="RnXoLSFv5eLRuYZo5d7v-2" target="RnXoLSFv5eLRuYZo5d7v-1" edge="1">
          <mxGeometry relative="1" as="geometry">
            <Array as="points">
              <mxPoint x="530" y="1245" />
            </Array>
          </mxGeometry>
        </mxCell>
        <mxCell id="0xy0WFjJkQ7r5krrQNsm-23" value="学生信息" style="edgeStyle=orthogonalEdgeStyle;orthogonalLoop=1;jettySize=auto;html=1;exitX=1;exitY=0.75;exitDx=0;exitDy=0;entryX=0;entryY=0.5;entryDx=0;entryDy=0;curved=1;" parent="1" source="RnXoLSFv5eLRuYZo5d7v-2" target="RnXoLSFv5eLRuYZo5d7v-1" edge="1">
          <mxGeometry relative="1" as="geometry">
            <Array as="points">
              <mxPoint x="610" y="1215" />
            </Array>
          </mxGeometry>
        </mxCell>
        <mxCell id="RnXoLSFv5eLRuYZo5d7v-2" value="学生" style="rounded=0;whiteSpace=wrap;html=1;" parent="1" vertex="1">
          <mxGeometry x="410" y="1170" width="120" height="60" as="geometry" />
        </mxCell>
        <mxCell id="RnXoLSFv5eLRuYZo5d7v-5" value="" style="group" parent="1" vertex="1" connectable="0">
          <mxGeometry x="300" y="990" width="90" height="20" as="geometry" />
        </mxCell>
        <mxCell id="RnXoLSFv5eLRuYZo5d7v-3" value="" style="endArrow=none;html=1;rounded=0;" parent="RnXoLSFv5eLRuYZo5d7v-5" edge="1">
          <mxGeometry width="50" height="50" relative="1" as="geometry">
            <mxPoint y="20" as="sourcePoint" />
            <mxPoint x="90" y="20" as="targetPoint" />
          </mxGeometry>
        </mxCell>
        <mxCell id="RnXoLSFv5eLRuYZo5d7v-4" value="" style="endArrow=none;html=1;rounded=0;" parent="RnXoLSFv5eLRuYZo5d7v-5" edge="1">
          <mxGeometry width="50" height="50" relative="1" as="geometry">
            <mxPoint as="sourcePoint" />
            <mxPoint x="90" as="targetPoint" />
          </mxGeometry>
        </mxCell>
        <mxCell id="RnXoLSFv5eLRuYZo5d7v-15" value="所授课程" style="edgeStyle=orthogonalEdgeStyle;orthogonalLoop=1;jettySize=auto;html=1;exitX=0;exitY=0.5;exitDx=0;exitDy=0;entryX=1;entryY=0.5;entryDx=0;entryDy=0;curved=1;" parent="1" source="RnXoLSFv5eLRuYZo5d7v-6" target="RnXoLSFv5eLRuYZo5d7v-1" edge="1">
          <mxGeometry relative="1" as="geometry">
            <Array as="points">
              <mxPoint x="810" y="1245" />
            </Array>
          </mxGeometry>
        </mxCell>
        <mxCell id="0xy0WFjJkQ7r5krrQNsm-25" value="教师信息" style="edgeStyle=orthogonalEdgeStyle;orthogonalLoop=1;jettySize=auto;html=1;exitX=0;exitY=0.5;exitDx=0;exitDy=0;entryX=1;entryY=0;entryDx=0;entryDy=0;curved=1;" parent="1" source="RnXoLSFv5eLRuYZo5d7v-6" target="RnXoLSFv5eLRuYZo5d7v-1" edge="1">
          <mxGeometry relative="1" as="geometry">
            <Array as="points">
              <mxPoint x="810" y="1224" />
            </Array>
          </mxGeometry>
        </mxCell>
        <mxCell id="RnXoLSFv5eLRuYZo5d7v-6" value="教师" style="rounded=0;whiteSpace=wrap;html=1;" parent="1" vertex="1">
          <mxGeometry x="810" y="1170" width="120" height="60" as="geometry" />
        </mxCell>
        <mxCell id="RnXoLSFv5eLRuYZo5d7v-21" value="选课时间" style="edgeStyle=orthogonalEdgeStyle;orthogonalLoop=1;jettySize=auto;html=1;exitX=0.25;exitY=0;exitDx=0;exitDy=0;entryX=0.5;entryY=1;entryDx=0;entryDy=0;curved=1;" parent="1" source="RnXoLSFv5eLRuYZo5d7v-7" target="RnXoLSFv5eLRuYZo5d7v-1" edge="1">
          <mxGeometry relative="1" as="geometry">
            <mxPoint x="640" y="1300" as="targetPoint" />
            <Array as="points">
              <mxPoint x="640" y="1290" />
              <mxPoint x="670" y="1290" />
            </Array>
          </mxGeometry>
        </mxCell>
        <mxCell id="RnXoLSFv5eLRuYZo5d7v-22" value="授课时间" style="edgeStyle=orthogonalEdgeStyle;orthogonalLoop=1;jettySize=auto;html=1;exitX=0.75;exitY=0;exitDx=0;exitDy=0;curved=1;entryX=0.5;entryY=1;entryDx=0;entryDy=0;" parent="1" source="RnXoLSFv5eLRuYZo5d7v-7" target="RnXoLSFv5eLRuYZo5d7v-1" edge="1">
          <mxGeometry relative="1" as="geometry">
            <mxPoint x="670" y="1280" as="targetPoint" />
            <Array as="points">
              <mxPoint x="700" y="1290" />
              <mxPoint x="670" y="1290" />
            </Array>
          </mxGeometry>
        </mxCell>
        <mxCell id="RnXoLSFv5eLRuYZo5d7v-7" value="管理员" style="rounded=0;whiteSpace=wrap;html=1;" parent="1" vertex="1">
          <mxGeometry x="610" y="1340" width="120" height="60" as="geometry" />
        </mxCell>
        <mxCell id="RnXoLSFv5eLRuYZo5d7v-30" value="可选课程" style="edgeStyle=orthogonalEdgeStyle;rounded=0;orthogonalLoop=1;jettySize=auto;html=1;exitX=1;exitY=0.5;exitDx=0;exitDy=0;entryX=0;entryY=0.5;entryDx=0;entryDy=0;" parent="1" source="RnXoLSFv5eLRuYZo5d7v-24" target="RnXoLSFv5eLRuYZo5d7v-26" edge="1">
          <mxGeometry relative="1" as="geometry" />
        </mxCell>
        <mxCell id="RnXoLSFv5eLRuYZo5d7v-42" style="edgeStyle=orthogonalEdgeStyle;orthogonalLoop=1;jettySize=auto;html=1;exitX=0.5;exitY=1;exitDx=0;exitDy=0;curved=1;" parent="1" source="RnXoLSFv5eLRuYZo5d7v-24" edge="1">
          <mxGeometry relative="1" as="geometry">
            <mxPoint x="525" y="1710" as="targetPoint" />
            <Array as="points">
              <mxPoint x="525" y="1670" />
            </Array>
          </mxGeometry>
        </mxCell>
        <mxCell id="RnXoLSFv5eLRuYZo5d7v-24" value="课程信息处理&lt;br&gt;2" style="ellipse;whiteSpace=wrap;html=1;" parent="1" vertex="1">
          <mxGeometry x="395" y="1610" width="120" height="60" as="geometry" />
        </mxCell>
        <mxCell id="RnXoLSFv5eLRuYZo5d7v-35" value="课程表" style="edgeStyle=orthogonalEdgeStyle;rounded=0;orthogonalLoop=1;jettySize=auto;html=1;exitX=1;exitY=0.5;exitDx=0;exitDy=0;" parent="1" source="RnXoLSFv5eLRuYZo5d7v-26" edge="1">
          <mxGeometry relative="1" as="geometry">
            <mxPoint x="805" y="1640" as="targetPoint" />
          </mxGeometry>
        </mxCell>
        <mxCell id="RnXoLSFv5eLRuYZo5d7v-45" style="edgeStyle=orthogonalEdgeStyle;orthogonalLoop=1;jettySize=auto;html=1;exitX=1;exitY=1;exitDx=0;exitDy=0;curved=1;" parent="1" source="RnXoLSFv5eLRuYZo5d7v-26" edge="1">
          <mxGeometry relative="1" as="geometry">
            <mxPoint x="685" y="1730" as="targetPoint" />
            <Array as="points">
              <mxPoint x="685" y="1661" />
            </Array>
          </mxGeometry>
        </mxCell>
        <mxCell id="RnXoLSFv5eLRuYZo5d7v-26" value="选课结果处理&lt;br&gt;3" style="ellipse;whiteSpace=wrap;html=1;" parent="1" vertex="1">
          <mxGeometry x="605" y="1610" width="120" height="60" as="geometry" />
        </mxCell>
        <mxCell id="RnXoLSFv5eLRuYZo5d7v-61" style="edgeStyle=orthogonalEdgeStyle;orthogonalLoop=1;jettySize=auto;html=1;exitX=1;exitY=1;exitDx=0;exitDy=0;curved=1;" parent="1" source="RnXoLSFv5eLRuYZo5d7v-27" edge="1">
          <mxGeometry relative="1" as="geometry">
            <mxPoint x="680" y="1930" as="targetPoint" />
            <Array as="points">
              <mxPoint x="680" y="1891" />
              <mxPoint x="680" y="1930" />
            </Array>
          </mxGeometry>
        </mxCell>
        <mxCell id="RnXoLSFv5eLRuYZo5d7v-27" value="成绩统计&lt;br&gt;4" style="ellipse;whiteSpace=wrap;html=1;" parent="1" vertex="1">
          <mxGeometry x="530" y="1840" width="120" height="60" as="geometry" />
        </mxCell>
        <mxCell id="RnXoLSFv5eLRuYZo5d7v-57" value="成绩单" style="edgeStyle=orthogonalEdgeStyle;rounded=0;orthogonalLoop=1;jettySize=auto;html=1;exitX=1;exitY=0.5;exitDx=0;exitDy=0;" parent="1" edge="1">
          <mxGeometry relative="1" as="geometry">
            <mxPoint x="750" y="1869.5" as="targetPoint" />
            <mxPoint x="650" y="1869.5" as="sourcePoint" />
          </mxGeometry>
        </mxCell>
        <mxCell id="RnXoLSFv5eLRuYZo5d7v-29" value="所授课程" style="endArrow=classic;html=1;rounded=0;entryX=0;entryY=0.5;entryDx=0;entryDy=0;" parent="1" target="RnXoLSFv5eLRuYZo5d7v-24" edge="1">
          <mxGeometry width="50" height="50" relative="1" as="geometry">
            <mxPoint x="320" y="1640" as="sourcePoint" />
            <mxPoint x="350" y="1560" as="targetPoint" />
          </mxGeometry>
        </mxCell>
        <mxCell id="RnXoLSFv5eLRuYZo5d7v-32" value="" style="group" parent="1" vertex="1" connectable="0">
          <mxGeometry x="485" y="1710" width="90" height="20" as="geometry" />
        </mxCell>
        <mxCell id="RnXoLSFv5eLRuYZo5d7v-33" value="" style="endArrow=none;html=1;rounded=0;" parent="RnXoLSFv5eLRuYZo5d7v-32" edge="1">
          <mxGeometry width="50" height="50" relative="1" as="geometry">
            <mxPoint y="20" as="sourcePoint" />
            <mxPoint x="90" y="20" as="targetPoint" />
          </mxGeometry>
        </mxCell>
        <mxCell id="RnXoLSFv5eLRuYZo5d7v-43" value="课程信息" style="edgeLabel;html=1;align=center;verticalAlign=middle;resizable=0;points=[];" parent="RnXoLSFv5eLRuYZo5d7v-33" vertex="1" connectable="0">
          <mxGeometry x="0.3333" y="3" relative="1" as="geometry">
            <mxPoint x="10" y="13" as="offset" />
          </mxGeometry>
        </mxCell>
        <mxCell id="RnXoLSFv5eLRuYZo5d7v-34" value="" style="endArrow=none;html=1;rounded=0;" parent="RnXoLSFv5eLRuYZo5d7v-32" edge="1">
          <mxGeometry width="50" height="50" relative="1" as="geometry">
            <mxPoint as="sourcePoint" />
            <mxPoint x="90" as="targetPoint" />
          </mxGeometry>
        </mxCell>
        <mxCell id="RnXoLSFv5eLRuYZo5d7v-36" value="" style="group" parent="1" vertex="1" connectable="0">
          <mxGeometry x="630" y="1930" width="90" height="20" as="geometry" />
        </mxCell>
        <mxCell id="RnXoLSFv5eLRuYZo5d7v-37" value="成绩信息" style="endArrow=none;html=1;rounded=0;" parent="RnXoLSFv5eLRuYZo5d7v-36" edge="1">
          <mxGeometry x="-0.3333" y="-10" width="50" height="50" relative="1" as="geometry">
            <mxPoint y="20" as="sourcePoint" />
            <mxPoint x="90" y="20" as="targetPoint" />
            <mxPoint as="offset" />
          </mxGeometry>
        </mxCell>
        <mxCell id="RnXoLSFv5eLRuYZo5d7v-38" value="" style="endArrow=none;html=1;rounded=0;" parent="RnXoLSFv5eLRuYZo5d7v-36" edge="1">
          <mxGeometry width="50" height="50" relative="1" as="geometry">
            <mxPoint as="sourcePoint" />
            <mxPoint x="90" as="targetPoint" />
            <Array as="points">
              <mxPoint x="55" />
            </Array>
          </mxGeometry>
        </mxCell>
        <mxCell id="RnXoLSFv5eLRuYZo5d7v-44" value="" style="curved=1;endArrow=classic;html=1;rounded=0;entryX=0;entryY=1;entryDx=0;entryDy=0;" parent="1" target="RnXoLSFv5eLRuYZo5d7v-26" edge="1">
          <mxGeometry width="50" height="50" relative="1" as="geometry">
            <mxPoint x="535" y="1710" as="sourcePoint" />
            <mxPoint x="585" y="1660" as="targetPoint" />
            <Array as="points">
              <mxPoint x="545" y="1660" />
            </Array>
          </mxGeometry>
        </mxCell>
        <mxCell id="RnXoLSFv5eLRuYZo5d7v-48" value="" style="group" parent="1" vertex="1" connectable="0">
          <mxGeometry x="645" y="1730" width="90" height="20" as="geometry" />
        </mxCell>
        <mxCell id="RnXoLSFv5eLRuYZo5d7v-49" value="" style="endArrow=none;html=1;rounded=0;" parent="RnXoLSFv5eLRuYZo5d7v-48" edge="1">
          <mxGeometry width="50" height="50" relative="1" as="geometry">
            <mxPoint y="20" as="sourcePoint" />
            <mxPoint x="90" y="20" as="targetPoint" />
          </mxGeometry>
        </mxCell>
        <mxCell id="RnXoLSFv5eLRuYZo5d7v-53" value="课程表" style="edgeLabel;html=1;align=center;verticalAlign=middle;resizable=0;points=[];" parent="RnXoLSFv5eLRuYZo5d7v-49" vertex="1" connectable="0">
          <mxGeometry x="0.7556" y="2" relative="1" as="geometry">
            <mxPoint x="-9" y="12" as="offset" />
          </mxGeometry>
        </mxCell>
        <mxCell id="RnXoLSFv5eLRuYZo5d7v-50" value="" style="endArrow=none;html=1;rounded=0;" parent="RnXoLSFv5eLRuYZo5d7v-48" edge="1">
          <mxGeometry width="50" height="50" relative="1" as="geometry">
            <mxPoint as="sourcePoint" />
            <mxPoint x="90" as="targetPoint" />
          </mxGeometry>
        </mxCell>
        <mxCell id="RnXoLSFv5eLRuYZo5d7v-54" value="成绩" style="endArrow=classic;html=1;rounded=0;entryX=0;entryY=0.5;entryDx=0;entryDy=0;" parent="1" edge="1">
          <mxGeometry width="50" height="50" relative="1" as="geometry">
            <mxPoint x="440" y="1869.5" as="sourcePoint" />
            <mxPoint x="530" y="1869.5" as="targetPoint" />
            <Array as="points">
              <mxPoint x="490" y="1869.5" />
            </Array>
          </mxGeometry>
        </mxCell>
        <mxCell id="RnXoLSFv5eLRuYZo5d7v-55" value="" style="curved=1;endArrow=classic;html=1;rounded=0;entryX=0.5;entryY=0;entryDx=0;entryDy=0;" parent="1" target="RnXoLSFv5eLRuYZo5d7v-27" edge="1">
          <mxGeometry width="50" height="50" relative="1" as="geometry">
            <mxPoint x="680" y="1750" as="sourcePoint" />
            <mxPoint x="645" y="1730" as="targetPoint" />
            <Array as="points">
              <mxPoint x="620" y="1770" />
            </Array>
          </mxGeometry>
        </mxCell>
        <mxCell id="RnXoLSFv5eLRuYZo5d7v-68" value="已编码课程" style="edgeStyle=orthogonalEdgeStyle;rounded=0;orthogonalLoop=1;jettySize=auto;html=1;exitX=1;exitY=0.5;exitDx=0;exitDy=0;" parent="1" source="RnXoLSFv5eLRuYZo5d7v-62" target="RnXoLSFv5eLRuYZo5d7v-63" edge="1">
          <mxGeometry relative="1" as="geometry" />
        </mxCell>
        <mxCell id="RnXoLSFv5eLRuYZo5d7v-62" value="课程信息汇总&lt;br&gt;2.1" style="ellipse;whiteSpace=wrap;html=1;" parent="1" vertex="1">
          <mxGeometry x="170" y="2225" width="120" height="60" as="geometry" />
        </mxCell>
        <mxCell id="RnXoLSFv5eLRuYZo5d7v-75" value="可选课程" style="edgeStyle=orthogonalEdgeStyle;rounded=0;orthogonalLoop=1;jettySize=auto;html=1;exitX=1;exitY=0.5;exitDx=0;exitDy=0;" parent="1" source="RnXoLSFv5eLRuYZo5d7v-63" edge="1">
          <mxGeometry relative="1" as="geometry">
            <mxPoint x="585" y="2255" as="targetPoint" />
          </mxGeometry>
        </mxCell>
        <mxCell id="RnXoLSFv5eLRuYZo5d7v-63" value="课程时间分配&lt;br&gt;2.2" style="ellipse;whiteSpace=wrap;html=1;" parent="1" vertex="1">
          <mxGeometry x="375" y="2225" width="120" height="60" as="geometry" />
        </mxCell>
        <mxCell id="RnXoLSFv5eLRuYZo5d7v-64" value="授课时间" style="endArrow=classic;html=1;rounded=0;entryX=0;entryY=0;entryDx=0;entryDy=0;" parent="1" target="RnXoLSFv5eLRuYZo5d7v-24" edge="1">
          <mxGeometry width="50" height="50" relative="1" as="geometry">
            <mxPoint x="330" y="1580" as="sourcePoint" />
            <mxPoint x="360" y="1520" as="targetPoint" />
          </mxGeometry>
        </mxCell>
        <mxCell id="RnXoLSFv5eLRuYZo5d7v-66" value="选课时间" style="endArrow=classic;html=1;rounded=0;entryX=0;entryY=0;entryDx=0;entryDy=0;" parent="1" edge="1">
          <mxGeometry width="50" height="50" relative="1" as="geometry">
            <mxPoint x="540" y="1580" as="sourcePoint" />
            <mxPoint x="623" y="1619" as="targetPoint" />
          </mxGeometry>
        </mxCell>
        <mxCell id="RnXoLSFv5eLRuYZo5d7v-67" value="所授课程" style="endArrow=classic;html=1;rounded=0;entryX=0;entryY=0.5;entryDx=0;entryDy=0;" parent="1" edge="1">
          <mxGeometry width="50" height="50" relative="1" as="geometry">
            <mxPoint x="80" y="2255" as="sourcePoint" />
            <mxPoint x="170" y="2255" as="targetPoint" />
          </mxGeometry>
        </mxCell>
        <mxCell id="RnXoLSFv5eLRuYZo5d7v-69" value="授课时间" style="endArrow=classic;html=1;rounded=0;entryX=0;entryY=0;entryDx=0;entryDy=0;" parent="1" target="RnXoLSFv5eLRuYZo5d7v-63" edge="1">
          <mxGeometry width="50" height="50" relative="1" as="geometry">
            <mxPoint x="325" y="2170" as="sourcePoint" />
            <mxPoint x="428" y="2225" as="targetPoint" />
          </mxGeometry>
        </mxCell>
        <mxCell id="RnXoLSFv5eLRuYZo5d7v-70" value="" style="group" parent="1" vertex="1" connectable="0">
          <mxGeometry x="465" y="2320" width="90" height="20" as="geometry" />
        </mxCell>
        <mxCell id="RnXoLSFv5eLRuYZo5d7v-71" value="" style="endArrow=none;html=1;rounded=0;" parent="RnXoLSFv5eLRuYZo5d7v-70" edge="1">
          <mxGeometry width="50" height="50" relative="1" as="geometry">
            <mxPoint y="20" as="sourcePoint" />
            <mxPoint x="90" y="20" as="targetPoint" />
          </mxGeometry>
        </mxCell>
        <mxCell id="RnXoLSFv5eLRuYZo5d7v-72" value="课程信息" style="edgeLabel;html=1;align=center;verticalAlign=middle;resizable=0;points=[];" parent="RnXoLSFv5eLRuYZo5d7v-71" vertex="1" connectable="0">
          <mxGeometry x="0.3333" y="3" relative="1" as="geometry">
            <mxPoint x="10" y="13" as="offset" />
          </mxGeometry>
        </mxCell>
        <mxCell id="RnXoLSFv5eLRuYZo5d7v-73" value="" style="endArrow=none;html=1;rounded=0;" parent="RnXoLSFv5eLRuYZo5d7v-70" edge="1">
          <mxGeometry width="50" height="50" relative="1" as="geometry">
            <mxPoint as="sourcePoint" />
            <mxPoint x="90" as="targetPoint" />
          </mxGeometry>
        </mxCell>
        <mxCell id="RnXoLSFv5eLRuYZo5d7v-74" style="edgeStyle=orthogonalEdgeStyle;orthogonalLoop=1;jettySize=auto;html=1;exitX=0.5;exitY=1;exitDx=0;exitDy=0;curved=1;" parent="1" source="RnXoLSFv5eLRuYZo5d7v-63" edge="1">
          <mxGeometry relative="1" as="geometry">
            <mxPoint x="505" y="2320" as="targetPoint" />
            <mxPoint x="435" y="2280" as="sourcePoint" />
            <Array as="points">
              <mxPoint x="505" y="2285" />
            </Array>
          </mxGeometry>
        </mxCell>
        <mxCell id="RnXoLSFv5eLRuYZo5d7v-79" value="预选课表" style="edgeStyle=orthogonalEdgeStyle;rounded=0;orthogonalLoop=1;jettySize=auto;html=1;exitX=1;exitY=0.5;exitDx=0;exitDy=0;entryX=0;entryY=0.5;entryDx=0;entryDy=0;" parent="1" source="RnXoLSFv5eLRuYZo5d7v-76" target="RnXoLSFv5eLRuYZo5d7v-78" edge="1">
          <mxGeometry relative="1" as="geometry" />
        </mxCell>
        <mxCell id="RnXoLSFv5eLRuYZo5d7v-76" value="预选&lt;br&gt;3.1" style="ellipse;whiteSpace=wrap;html=1;" parent="1" vertex="1">
          <mxGeometry x="150" y="2484" width="120" height="60" as="geometry" />
        </mxCell>
        <mxCell id="RnXoLSFv5eLRuYZo5d7v-77" value="可选课程" style="edgeStyle=orthogonalEdgeStyle;rounded=0;orthogonalLoop=1;jettySize=auto;html=1;exitX=1;exitY=0.5;exitDx=0;exitDy=0;entryX=0;entryY=0.5;entryDx=0;entryDy=0;" parent="1" edge="1">
          <mxGeometry relative="1" as="geometry">
            <mxPoint x="60" y="2513.5" as="sourcePoint" />
            <mxPoint x="150" y="2513.5" as="targetPoint" />
          </mxGeometry>
        </mxCell>
        <mxCell id="RnXoLSFv5eLRuYZo5d7v-82" value="正选课表" style="edgeStyle=orthogonalEdgeStyle;rounded=0;orthogonalLoop=1;jettySize=auto;html=1;exitX=1;exitY=0.5;exitDx=0;exitDy=0;" parent="1" source="RnXoLSFv5eLRuYZo5d7v-78" target="RnXoLSFv5eLRuYZo5d7v-81" edge="1">
          <mxGeometry relative="1" as="geometry" />
        </mxCell>
        <mxCell id="RnXoLSFv5eLRuYZo5d7v-78" value="正选&lt;br&gt;3.2" style="ellipse;whiteSpace=wrap;html=1;" parent="1" vertex="1">
          <mxGeometry x="375" y="2484" width="120" height="60" as="geometry" />
        </mxCell>
        <mxCell id="RnXoLSFv5eLRuYZo5d7v-85" value="课程表" style="edgeStyle=orthogonalEdgeStyle;rounded=0;orthogonalLoop=1;jettySize=auto;html=1;exitX=1;exitY=0.5;exitDx=0;exitDy=0;" parent="1" source="RnXoLSFv5eLRuYZo5d7v-81" edge="1">
          <mxGeometry relative="1" as="geometry">
            <mxPoint x="790" y="2514" as="targetPoint" />
          </mxGeometry>
        </mxCell>
        <mxCell id="RnXoLSFv5eLRuYZo5d7v-86" style="edgeStyle=orthogonalEdgeStyle;orthogonalLoop=1;jettySize=auto;html=1;exitX=1;exitY=1;exitDx=0;exitDy=0;curved=1;" parent="1" source="RnXoLSFv5eLRuYZo5d7v-81" edge="1">
          <mxGeometry relative="1" as="geometry">
            <mxPoint x="730" y="2570" as="targetPoint" />
            <Array as="points">
              <mxPoint x="730" y="2535" />
              <mxPoint x="730" y="2570" />
            </Array>
          </mxGeometry>
        </mxCell>
        <mxCell id="RnXoLSFv5eLRuYZo5d7v-81" value="补退选&lt;br&gt;3.3" style="ellipse;whiteSpace=wrap;html=1;" parent="1" vertex="1">
          <mxGeometry x="590" y="2484" width="120" height="60" as="geometry" />
        </mxCell>
        <mxCell id="RnXoLSFv5eLRuYZo5d7v-84" value="选课时间" style="endArrow=classic;html=1;rounded=0;entryX=0;entryY=0;entryDx=0;entryDy=0;" parent="1" edge="1">
          <mxGeometry width="50" height="50" relative="1" as="geometry">
            <mxPoint x="141" y="2420" as="sourcePoint" />
            <mxPoint x="209" y="2484" as="targetPoint" />
          </mxGeometry>
        </mxCell>
        <mxCell id="RnXoLSFv5eLRuYZo5d7v-87" value="" style="group" parent="1" vertex="1" connectable="0">
          <mxGeometry x="670" y="2570" width="90" height="20" as="geometry" />
        </mxCell>
        <mxCell id="RnXoLSFv5eLRuYZo5d7v-88" value="课程表" style="endArrow=none;html=1;rounded=0;" parent="RnXoLSFv5eLRuYZo5d7v-87" edge="1">
          <mxGeometry x="0.5556" y="-10" width="50" height="50" relative="1" as="geometry">
            <mxPoint y="20" as="sourcePoint" />
            <mxPoint x="90" y="20" as="targetPoint" />
            <mxPoint as="offset" />
          </mxGeometry>
        </mxCell>
        <mxCell id="RnXoLSFv5eLRuYZo5d7v-89" value="" style="endArrow=none;html=1;rounded=0;" parent="RnXoLSFv5eLRuYZo5d7v-87" edge="1">
          <mxGeometry width="50" height="50" relative="1" as="geometry">
            <mxPoint as="sourcePoint" />
            <mxPoint x="90" as="targetPoint" />
          </mxGeometry>
        </mxCell>
        <mxCell id="0xy0WFjJkQ7r5krrQNsm-1" value="打分课程" style="edgeStyle=orthogonalEdgeStyle;rounded=0;orthogonalLoop=1;jettySize=auto;html=1;exitX=1;exitY=0.5;exitDx=0;exitDy=0;" parent="1" source="0xy0WFjJkQ7r5krrQNsm-2" target="0xy0WFjJkQ7r5krrQNsm-4" edge="1">
          <mxGeometry relative="1" as="geometry" />
        </mxCell>
        <mxCell id="0xy0WFjJkQ7r5krrQNsm-2" value="成绩录入&lt;br&gt;4.1" style="ellipse;whiteSpace=wrap;html=1;" parent="1" vertex="1">
          <mxGeometry x="150" y="2730" width="120" height="60" as="geometry" />
        </mxCell>
        <mxCell id="0xy0WFjJkQ7r5krrQNsm-3" value="成绩单" style="edgeStyle=orthogonalEdgeStyle;rounded=0;orthogonalLoop=1;jettySize=auto;html=1;exitX=1;exitY=0.5;exitDx=0;exitDy=0;" parent="1" source="0xy0WFjJkQ7r5krrQNsm-4" edge="1">
          <mxGeometry relative="1" as="geometry">
            <mxPoint x="597.5" y="2760" as="targetPoint" />
            <mxPoint as="offset" />
          </mxGeometry>
        </mxCell>
        <mxCell id="0xy0WFjJkQ7r5krrQNsm-18" style="edgeStyle=orthogonalEdgeStyle;orthogonalLoop=1;jettySize=auto;html=1;exitX=1;exitY=1;exitDx=0;exitDy=0;curved=1;" parent="1" source="0xy0WFjJkQ7r5krrQNsm-4" edge="1">
          <mxGeometry relative="1" as="geometry">
            <mxPoint x="537.5" y="2825" as="targetPoint" />
          </mxGeometry>
        </mxCell>
        <mxCell id="0xy0WFjJkQ7r5krrQNsm-4" value="计算平均成绩&lt;br&gt;4.2" style="ellipse;whiteSpace=wrap;html=1;" parent="1" vertex="1">
          <mxGeometry x="387.5" y="2730" width="120" height="60" as="geometry" />
        </mxCell>
        <mxCell id="0xy0WFjJkQ7r5krrQNsm-5" value="成绩" style="endArrow=classic;html=1;rounded=0;entryX=0;entryY=0.5;entryDx=0;entryDy=0;" parent="1" edge="1">
          <mxGeometry width="50" height="50" relative="1" as="geometry">
            <mxPoint x="60" y="2760" as="sourcePoint" />
            <mxPoint x="150" y="2760" as="targetPoint" />
          </mxGeometry>
        </mxCell>
        <mxCell id="0xy0WFjJkQ7r5krrQNsm-12" value="" style="group" parent="1" vertex="1" connectable="0">
          <mxGeometry x="85" y="2825" width="90" height="20" as="geometry" />
        </mxCell>
        <mxCell id="0xy0WFjJkQ7r5krrQNsm-13" value="" style="endArrow=none;html=1;rounded=0;" parent="0xy0WFjJkQ7r5krrQNsm-12" edge="1">
          <mxGeometry width="50" height="50" relative="1" as="geometry">
            <mxPoint y="20" as="sourcePoint" />
            <mxPoint x="90" y="20" as="targetPoint" />
          </mxGeometry>
        </mxCell>
        <mxCell id="0xy0WFjJkQ7r5krrQNsm-14" value="课程信息" style="edgeLabel;html=1;align=center;verticalAlign=middle;resizable=0;points=[];" parent="0xy0WFjJkQ7r5krrQNsm-13" vertex="1" connectable="0">
          <mxGeometry x="0.3333" y="3" relative="1" as="geometry">
            <mxPoint x="10" y="13" as="offset" />
          </mxGeometry>
        </mxCell>
        <mxCell id="0xy0WFjJkQ7r5krrQNsm-15" value="" style="endArrow=none;html=1;rounded=0;" parent="0xy0WFjJkQ7r5krrQNsm-12" edge="1">
          <mxGeometry width="50" height="50" relative="1" as="geometry">
            <mxPoint as="sourcePoint" />
            <mxPoint x="90" as="targetPoint" />
          </mxGeometry>
        </mxCell>
        <mxCell id="0xy0WFjJkQ7r5krrQNsm-16" value="" style="curved=1;endArrow=classic;html=1;rounded=0;entryX=0.308;entryY=0.942;entryDx=0;entryDy=0;entryPerimeter=0;" parent="1" target="0xy0WFjJkQ7r5krrQNsm-2" edge="1">
          <mxGeometry width="50" height="50" relative="1" as="geometry">
            <mxPoint x="125" y="2825" as="sourcePoint" />
            <mxPoint x="175" y="2775" as="targetPoint" />
            <Array as="points">
              <mxPoint x="175" y="2825" />
            </Array>
          </mxGeometry>
        </mxCell>
        <mxCell id="0xy0WFjJkQ7r5krrQNsm-19" value="" style="group" parent="1" vertex="1" connectable="0">
          <mxGeometry x="487.5" y="2825" width="90" height="20" as="geometry" />
        </mxCell>
        <mxCell id="0xy0WFjJkQ7r5krrQNsm-20" value="" style="endArrow=none;html=1;rounded=0;" parent="0xy0WFjJkQ7r5krrQNsm-19" edge="1">
          <mxGeometry width="50" height="50" relative="1" as="geometry">
            <mxPoint y="20" as="sourcePoint" />
            <mxPoint x="90" y="20" as="targetPoint" />
          </mxGeometry>
        </mxCell>
        <mxCell id="0xy0WFjJkQ7r5krrQNsm-21" value="成绩信息" style="edgeLabel;html=1;align=center;verticalAlign=middle;resizable=0;points=[];" parent="0xy0WFjJkQ7r5krrQNsm-20" vertex="1" connectable="0">
          <mxGeometry x="0.3333" y="3" relative="1" as="geometry">
            <mxPoint x="10" y="13" as="offset" />
          </mxGeometry>
        </mxCell>
        <mxCell id="0xy0WFjJkQ7r5krrQNsm-22" value="" style="endArrow=none;html=1;rounded=0;" parent="0xy0WFjJkQ7r5krrQNsm-19" edge="1">
          <mxGeometry width="50" height="50" relative="1" as="geometry">
            <mxPoint as="sourcePoint" />
            <mxPoint x="90" as="targetPoint" />
          </mxGeometry>
        </mxCell>
        <mxCell id="0xy0WFjJkQ7r5krrQNsm-38" style="edgeStyle=orthogonalEdgeStyle;orthogonalLoop=1;jettySize=auto;html=1;exitX=1;exitY=0.5;exitDx=0;exitDy=0;curved=1;" parent="1" source="0xy0WFjJkQ7r5krrQNsm-31" edge="1">
          <mxGeometry relative="1" as="geometry">
            <mxPoint x="360" y="1770" as="targetPoint" />
            <Array as="points">
              <mxPoint x="360" y="1740" />
            </Array>
          </mxGeometry>
        </mxCell>
        <mxCell id="0xy0WFjJkQ7r5krrQNsm-41" value="用户信息" style="edgeStyle=orthogonalEdgeStyle;rounded=0;orthogonalLoop=1;jettySize=auto;html=1;exitX=0.5;exitY=1;exitDx=0;exitDy=0;" parent="1" source="0xy0WFjJkQ7r5krrQNsm-31" edge="1">
          <mxGeometry relative="1" as="geometry">
            <mxPoint x="240" y="1830" as="targetPoint" />
          </mxGeometry>
        </mxCell>
        <mxCell id="0xy0WFjJkQ7r5krrQNsm-31" value="用户信息处理&lt;br&gt;1" style="ellipse;whiteSpace=wrap;html=1;" parent="1" vertex="1">
          <mxGeometry x="180" y="1710" width="120" height="60" as="geometry" />
        </mxCell>
        <mxCell id="0xy0WFjJkQ7r5krrQNsm-32" value="教师信息" style="endArrow=classic;html=1;rounded=0;entryX=0;entryY=0;entryDx=0;entryDy=0;" parent="1" target="0xy0WFjJkQ7r5krrQNsm-31" edge="1">
          <mxGeometry x="-0.0037" width="50" height="50" relative="1" as="geometry">
            <mxPoint x="90" y="1680" as="sourcePoint" />
            <mxPoint x="180" y="1681" as="targetPoint" />
            <mxPoint as="offset" />
          </mxGeometry>
        </mxCell>
        <mxCell id="0xy0WFjJkQ7r5krrQNsm-33" value="学生信息" style="endArrow=classic;html=1;rounded=0;entryX=0;entryY=1;entryDx=0;entryDy=0;" parent="1" target="0xy0WFjJkQ7r5krrQNsm-31" edge="1">
          <mxGeometry x="-0.0037" width="50" height="50" relative="1" as="geometry">
            <mxPoint x="90" y="1790" as="sourcePoint" />
            <mxPoint x="190" y="1760" as="targetPoint" />
            <mxPoint as="offset" />
          </mxGeometry>
        </mxCell>
        <mxCell id="0xy0WFjJkQ7r5krrQNsm-34" value="" style="group" parent="1" vertex="1" connectable="0">
          <mxGeometry x="345" y="1770" width="90" height="20" as="geometry" />
        </mxCell>
        <mxCell id="0xy0WFjJkQ7r5krrQNsm-35" value="" style="endArrow=none;html=1;rounded=0;" parent="0xy0WFjJkQ7r5krrQNsm-34" edge="1">
          <mxGeometry width="50" height="50" relative="1" as="geometry">
            <mxPoint y="20" as="sourcePoint" />
            <mxPoint x="90" y="20" as="targetPoint" />
          </mxGeometry>
        </mxCell>
        <mxCell id="0xy0WFjJkQ7r5krrQNsm-36" value="用户数据" style="edgeLabel;html=1;align=center;verticalAlign=middle;resizable=0;points=[];" parent="0xy0WFjJkQ7r5krrQNsm-35" vertex="1" connectable="0">
          <mxGeometry x="0.3333" y="3" relative="1" as="geometry">
            <mxPoint x="10" y="13" as="offset" />
          </mxGeometry>
        </mxCell>
        <mxCell id="0xy0WFjJkQ7r5krrQNsm-37" value="" style="endArrow=none;html=1;rounded=0;" parent="0xy0WFjJkQ7r5krrQNsm-34" edge="1">
          <mxGeometry width="50" height="50" relative="1" as="geometry">
            <mxPoint as="sourcePoint" />
            <mxPoint x="90" as="targetPoint" />
          </mxGeometry>
        </mxCell>
        <mxCell id="0xy0WFjJkQ7r5krrQNsm-43" value="" style="curved=1;endArrow=classic;html=1;rounded=0;entryX=0;entryY=1;entryDx=0;entryDy=0;" parent="1" target="RnXoLSFv5eLRuYZo5d7v-24" edge="1">
          <mxGeometry width="50" height="50" relative="1" as="geometry">
            <mxPoint x="390" y="1770" as="sourcePoint" />
            <mxPoint x="420" y="1720" as="targetPoint" />
            <Array as="points">
              <mxPoint x="370" y="1730" />
            </Array>
          </mxGeometry>
        </mxCell>
        <mxCell id="0xy0WFjJkQ7r5krrQNsm-44" value="" style="curved=1;endArrow=classic;html=1;rounded=0;entryX=0;entryY=0;entryDx=0;entryDy=0;" parent="1" target="RnXoLSFv5eLRuYZo5d7v-27" edge="1">
          <mxGeometry width="50" height="50" relative="1" as="geometry">
            <mxPoint x="380" y="1790" as="sourcePoint" />
            <mxPoint x="423" y="1671" as="targetPoint" />
            <Array as="points">
              <mxPoint x="430" y="1849" />
            </Array>
          </mxGeometry>
        </mxCell>
        <mxCell id="0xy0WFjJkQ7r5krrQNsm-45" value="" style="group" parent="1" vertex="1" connectable="0">
          <mxGeometry x="140" y="2310" width="90" height="20" as="geometry" />
        </mxCell>
        <mxCell id="0xy0WFjJkQ7r5krrQNsm-46" value="" style="endArrow=none;html=1;rounded=0;" parent="0xy0WFjJkQ7r5krrQNsm-45" edge="1">
          <mxGeometry width="50" height="50" relative="1" as="geometry">
            <mxPoint y="20" as="sourcePoint" />
            <mxPoint x="90" y="20" as="targetPoint" />
          </mxGeometry>
        </mxCell>
        <mxCell id="0xy0WFjJkQ7r5krrQNsm-47" value="用户数据" style="edgeLabel;html=1;align=center;verticalAlign=middle;resizable=0;points=[];" parent="0xy0WFjJkQ7r5krrQNsm-46" vertex="1" connectable="0">
          <mxGeometry x="0.3333" y="3" relative="1" as="geometry">
            <mxPoint x="10" y="13" as="offset" />
          </mxGeometry>
        </mxCell>
        <mxCell id="0xy0WFjJkQ7r5krrQNsm-48" value="" style="endArrow=none;html=1;rounded=0;" parent="0xy0WFjJkQ7r5krrQNsm-45" edge="1">
          <mxGeometry width="50" height="50" relative="1" as="geometry">
            <mxPoint as="sourcePoint" />
            <mxPoint x="90" as="targetPoint" />
          </mxGeometry>
        </mxCell>
        <mxCell id="0xy0WFjJkQ7r5krrQNsm-49" value="" style="curved=1;endArrow=classic;html=1;rounded=0;entryX=0.5;entryY=1;entryDx=0;entryDy=0;" parent="1" target="RnXoLSFv5eLRuYZo5d7v-62" edge="1">
          <mxGeometry width="50" height="50" relative="1" as="geometry">
            <mxPoint x="170" y="2310" as="sourcePoint" />
            <mxPoint x="218" y="2261" as="targetPoint" />
            <Array as="points">
              <mxPoint x="220" y="2310" />
            </Array>
          </mxGeometry>
        </mxCell>
        <mxCell id="0xy0WFjJkQ7r5krrQNsm-53" value="合格信息" style="edgeStyle=orthogonalEdgeStyle;rounded=0;orthogonalLoop=1;jettySize=auto;html=1;exitX=1;exitY=0.5;exitDx=0;exitDy=0;" parent="1" source="0xy0WFjJkQ7r5krrQNsm-50" edge="1">
          <mxGeometry relative="1" as="geometry">
            <mxPoint x="390" y="2020" as="targetPoint" />
            <Array as="points">
              <mxPoint x="360" y="2020" />
              <mxPoint x="360" y="2020" />
            </Array>
          </mxGeometry>
        </mxCell>
        <mxCell id="0xy0WFjJkQ7r5krrQNsm-50" value="信息检查&lt;br&gt;1.1" style="ellipse;whiteSpace=wrap;html=1;" parent="1" vertex="1">
          <mxGeometry x="187.5" y="1990" width="120" height="60" as="geometry" />
        </mxCell>
        <mxCell id="0xy0WFjJkQ7r5krrQNsm-51" value="教师信息" style="endArrow=classic;html=1;rounded=0;entryX=0;entryY=0;entryDx=0;entryDy=0;" parent="1" target="0xy0WFjJkQ7r5krrQNsm-50" edge="1">
          <mxGeometry x="-0.0037" width="50" height="50" relative="1" as="geometry">
            <mxPoint x="120" y="1950" as="sourcePoint" />
            <mxPoint x="187.5" y="1961" as="targetPoint" />
            <mxPoint as="offset" />
          </mxGeometry>
        </mxCell>
        <mxCell id="0xy0WFjJkQ7r5krrQNsm-55" value="用户信息" style="edgeStyle=orthogonalEdgeStyle;rounded=0;orthogonalLoop=1;jettySize=auto;html=1;exitX=1;exitY=0.5;exitDx=0;exitDy=0;" parent="1" source="0xy0WFjJkQ7r5krrQNsm-54" edge="1">
          <mxGeometry relative="1" as="geometry">
            <mxPoint x="610" y="2020" as="targetPoint" />
          </mxGeometry>
        </mxCell>
        <mxCell id="0xy0WFjJkQ7r5krrQNsm-54" value="信息规范化&lt;br&gt;1.2" style="ellipse;whiteSpace=wrap;html=1;" parent="1" vertex="1">
          <mxGeometry x="387.5" y="1990" width="120" height="60" as="geometry" />
        </mxCell>
        <mxCell id="0xy0WFjJkQ7r5krrQNsm-56" style="edgeStyle=orthogonalEdgeStyle;orthogonalLoop=1;jettySize=auto;html=1;exitX=1;exitY=1;exitDx=0;exitDy=0;curved=1;" parent="1" edge="1">
          <mxGeometry relative="1" as="geometry">
            <mxPoint x="540" y="2090" as="targetPoint" />
            <mxPoint x="450" y="2050" as="sourcePoint" />
          </mxGeometry>
        </mxCell>
        <mxCell id="0xy0WFjJkQ7r5krrQNsm-57" value="" style="group" parent="1" vertex="1" connectable="0">
          <mxGeometry x="485" y="2090" width="90" height="20" as="geometry" />
        </mxCell>
        <mxCell id="0xy0WFjJkQ7r5krrQNsm-58" value="用户数据" style="endArrow=none;html=1;rounded=0;" parent="0xy0WFjJkQ7r5krrQNsm-57" edge="1">
          <mxGeometry x="-0.3333" y="-10" width="50" height="50" relative="1" as="geometry">
            <mxPoint y="20" as="sourcePoint" />
            <mxPoint x="90" y="20" as="targetPoint" />
            <mxPoint as="offset" />
          </mxGeometry>
        </mxCell>
        <mxCell id="0xy0WFjJkQ7r5krrQNsm-59" value="" style="endArrow=none;html=1;rounded=0;" parent="0xy0WFjJkQ7r5krrQNsm-57" edge="1">
          <mxGeometry width="50" height="50" relative="1" as="geometry">
            <mxPoint as="sourcePoint" />
            <mxPoint x="90" as="targetPoint" />
            <Array as="points">
              <mxPoint x="55" />
            </Array>
          </mxGeometry>
        </mxCell>
        <mxCell id="0xy0WFjJkQ7r5krrQNsm-60" value="" style="group" parent="1" vertex="1" connectable="0">
          <mxGeometry x="217.5" y="2825" width="90" height="20" as="geometry" />
        </mxCell>
        <mxCell id="0xy0WFjJkQ7r5krrQNsm-61" value="" style="endArrow=none;html=1;rounded=0;" parent="0xy0WFjJkQ7r5krrQNsm-60" edge="1">
          <mxGeometry width="50" height="50" relative="1" as="geometry">
            <mxPoint y="20" as="sourcePoint" />
            <mxPoint x="90" y="20" as="targetPoint" />
          </mxGeometry>
        </mxCell>
        <mxCell id="0xy0WFjJkQ7r5krrQNsm-62" value="用户数据" style="edgeLabel;html=1;align=center;verticalAlign=middle;resizable=0;points=[];" parent="0xy0WFjJkQ7r5krrQNsm-61" vertex="1" connectable="0">
          <mxGeometry x="0.3333" y="3" relative="1" as="geometry">
            <mxPoint x="10" y="13" as="offset" />
          </mxGeometry>
        </mxCell>
        <mxCell id="0xy0WFjJkQ7r5krrQNsm-63" value="" style="endArrow=none;html=1;rounded=0;" parent="0xy0WFjJkQ7r5krrQNsm-60" edge="1">
          <mxGeometry width="50" height="50" relative="1" as="geometry">
            <mxPoint as="sourcePoint" />
            <mxPoint x="90" as="targetPoint" />
          </mxGeometry>
        </mxCell>
        <mxCell id="0xy0WFjJkQ7r5krrQNsm-64" value="" style="curved=1;endArrow=classic;html=1;rounded=0;entryX=0.7;entryY=0.948;entryDx=0;entryDy=0;entryPerimeter=0;" parent="1" target="0xy0WFjJkQ7r5krrQNsm-2" edge="1">
          <mxGeometry width="50" height="50" relative="1" as="geometry">
            <mxPoint x="290" y="2825" as="sourcePoint" />
            <mxPoint x="307.5" y="2800" as="targetPoint" />
            <Array as="points">
              <mxPoint x="250" y="2815" />
            </Array>
          </mxGeometry>
        </mxCell>
        <mxCell id="0xy0WFjJkQ7r5krrQNsm-70" value="" style="curved=1;endArrow=classic;html=1;rounded=0;entryX=0.371;entryY=1;entryDx=0;entryDy=0;entryPerimeter=0;" parent="1" target="RnXoLSFv5eLRuYZo5d7v-26" edge="1">
          <mxGeometry width="50" height="50" relative="1" as="geometry">
            <mxPoint x="420" y="1770" as="sourcePoint" />
            <mxPoint x="423" y="1671" as="targetPoint" />
            <Array as="points">
              <mxPoint x="620" y="1790" />
            </Array>
          </mxGeometry>
        </mxCell>
        <mxCell id="0xy0WFjJkQ7r5krrQNsm-71" value="" style="curved=1;endArrow=classic;html=1;rounded=0;entryX=0.5;entryY=1;entryDx=0;entryDy=0;" parent="1" edge="1">
          <mxGeometry width="50" height="50" relative="1" as="geometry">
            <mxPoint x="150" y="2569" as="sourcePoint" />
            <mxPoint x="210" y="2544" as="targetPoint" />
            <Array as="points">
              <mxPoint x="200" y="2569" />
            </Array>
          </mxGeometry>
        </mxCell>
        <mxCell id="0xy0WFjJkQ7r5krrQNsm-72" value="" style="group" parent="1" vertex="1" connectable="0">
          <mxGeometry x="120" y="2569" width="90" height="20" as="geometry" />
        </mxCell>
        <mxCell id="0xy0WFjJkQ7r5krrQNsm-73" value="" style="endArrow=none;html=1;rounded=0;" parent="0xy0WFjJkQ7r5krrQNsm-72" edge="1">
          <mxGeometry width="50" height="50" relative="1" as="geometry">
            <mxPoint y="20" as="sourcePoint" />
            <mxPoint x="90" y="20" as="targetPoint" />
          </mxGeometry>
        </mxCell>
        <mxCell id="0xy0WFjJkQ7r5krrQNsm-74" value="用户数据" style="edgeLabel;html=1;align=center;verticalAlign=middle;resizable=0;points=[];" parent="0xy0WFjJkQ7r5krrQNsm-73" vertex="1" connectable="0">
          <mxGeometry x="0.3333" y="3" relative="1" as="geometry">
            <mxPoint x="10" y="13" as="offset" />
          </mxGeometry>
        </mxCell>
        <mxCell id="0xy0WFjJkQ7r5krrQNsm-75" value="" style="endArrow=none;html=1;rounded=0;" parent="0xy0WFjJkQ7r5krrQNsm-72" edge="1">
          <mxGeometry width="50" height="50" relative="1" as="geometry">
            <mxPoint as="sourcePoint" />
            <mxPoint x="90" as="targetPoint" />
          </mxGeometry>
        </mxCell>
        <mxCell id="0xy0WFjJkQ7r5krrQNsm-76" value="学生信息" style="endArrow=classic;html=1;rounded=0;entryX=0;entryY=1;entryDx=0;entryDy=0;" parent="1" edge="1">
          <mxGeometry x="-0.0037" width="50" height="50" relative="1" as="geometry">
            <mxPoint x="100" y="2021" as="sourcePoint" />
            <mxPoint x="187.5" y="2020.5" as="targetPoint" />
            <mxPoint as="offset" />
          </mxGeometry>
        </mxCell>
        <mxCell id="VGlrAe6bgB-VciZrxGqc-108" value="" style="group" vertex="1" connectable="0" parent="1">
          <mxGeometry x="950" y="279" width="70" height="683" as="geometry" />
        </mxCell>
        <mxCell id="VGlrAe6bgB-VciZrxGqc-404" value="" style="group" vertex="1" connectable="0" parent="VGlrAe6bgB-VciZrxGqc-108">
          <mxGeometry x="383" y="-99.5" width="70" height="584" as="geometry" />
        </mxCell>
        <mxCell id="VGlrAe6bgB-VciZrxGqc-91" value="" style="line;strokeWidth=2;html=1;" vertex="1" parent="VGlrAe6bgB-VciZrxGqc-404">
          <mxGeometry width="70" height="2.995614035087719" as="geometry" />
        </mxCell>
        <mxCell id="VGlrAe6bgB-VciZrxGqc-92" value="" style="line;strokeWidth=2;html=1;" vertex="1" parent="VGlrAe6bgB-VciZrxGqc-404">
          <mxGeometry y="80.88157894736841" width="70" height="2.995614035087719" as="geometry" />
        </mxCell>
        <mxCell id="VGlrAe6bgB-VciZrxGqc-100" style="edgeStyle=orthogonalEdgeStyle;rounded=0;orthogonalLoop=1;jettySize=auto;html=1;exitX=0.75;exitY=0.5;exitDx=0;exitDy=0;exitPerimeter=0;" edge="1" parent="VGlrAe6bgB-VciZrxGqc-404" source="VGlrAe6bgB-VciZrxGqc-94">
          <mxGeometry relative="1" as="geometry">
            <mxPoint x="52.5" y="80.88157894736841" as="targetPoint" />
          </mxGeometry>
        </mxCell>
        <mxCell id="VGlrAe6bgB-VciZrxGqc-94" value="" style="line;strokeWidth=2;html=1;" vertex="1" parent="VGlrAe6bgB-VciZrxGqc-404">
          <mxGeometry y="317.53508771929825" width="70" height="2.995614035087719" as="geometry" />
        </mxCell>
        <mxCell id="VGlrAe6bgB-VciZrxGqc-95" value="" style="line;strokeWidth=2;html=1;" vertex="1" parent="VGlrAe6bgB-VciZrxGqc-404">
          <mxGeometry y="380.996783625731" width="70" height="2.995614035087719" as="geometry" />
        </mxCell>
        <mxCell id="VGlrAe6bgB-VciZrxGqc-109" style="edgeStyle=orthogonalEdgeStyle;rounded=0;orthogonalLoop=1;jettySize=auto;html=1;exitX=0.75;exitY=0.5;exitDx=0;exitDy=0;exitPerimeter=0;entryX=0.75;entryY=0.5;entryDx=0;entryDy=0;entryPerimeter=0;" edge="1" parent="VGlrAe6bgB-VciZrxGqc-404" source="VGlrAe6bgB-VciZrxGqc-96" target="VGlrAe6bgB-VciZrxGqc-95">
          <mxGeometry relative="1" as="geometry">
            <mxPoint x="52.5" y="480.296783625731" as="targetPoint" />
          </mxGeometry>
        </mxCell>
        <mxCell id="VGlrAe6bgB-VciZrxGqc-96" value="" style="line;strokeWidth=2;html=1;" vertex="1" parent="VGlrAe6bgB-VciZrxGqc-404">
          <mxGeometry y="581.0043859649122" width="70" height="2.995614035087719" as="geometry" />
        </mxCell>
        <mxCell id="VGlrAe6bgB-VciZrxGqc-97" style="edgeStyle=orthogonalEdgeStyle;rounded=0;orthogonalLoop=1;jettySize=auto;html=1;exitX=0.75;exitY=0.5;exitDx=0;exitDy=0;exitPerimeter=0;entryX=0.75;entryY=0.5;entryDx=0;entryDy=0;entryPerimeter=0;verticalAlign=middle;horizontal=0;" edge="1" parent="VGlrAe6bgB-VciZrxGqc-404" source="VGlrAe6bgB-VciZrxGqc-91" target="VGlrAe6bgB-VciZrxGqc-92">
          <mxGeometry relative="1" as="geometry" />
        </mxCell>
        <mxCell id="VGlrAe6bgB-VciZrxGqc-99" style="edgeStyle=orthogonalEdgeStyle;rounded=0;orthogonalLoop=1;jettySize=auto;html=1;exitX=0.75;exitY=0.5;exitDx=0;exitDy=0;exitPerimeter=0;entryX=0.75;entryY=0.5;entryDx=0;entryDy=0;entryPerimeter=0;" edge="1" parent="VGlrAe6bgB-VciZrxGqc-404" source="VGlrAe6bgB-VciZrxGqc-92" target="VGlrAe6bgB-VciZrxGqc-94">
          <mxGeometry relative="1" as="geometry" />
        </mxCell>
        <mxCell id="VGlrAe6bgB-VciZrxGqc-101" style="edgeStyle=orthogonalEdgeStyle;rounded=0;orthogonalLoop=1;jettySize=auto;html=1;exitX=0.75;exitY=0.5;exitDx=0;exitDy=0;exitPerimeter=0;entryX=0.75;entryY=0.5;entryDx=0;entryDy=0;entryPerimeter=0;" edge="1" parent="VGlrAe6bgB-VciZrxGqc-404" source="VGlrAe6bgB-VciZrxGqc-94" target="VGlrAe6bgB-VciZrxGqc-95">
          <mxGeometry relative="1" as="geometry" />
        </mxCell>
        <mxCell id="VGlrAe6bgB-VciZrxGqc-104" style="edgeStyle=orthogonalEdgeStyle;rounded=0;orthogonalLoop=1;jettySize=auto;html=1;exitX=0.75;exitY=0.5;exitDx=0;exitDy=0;exitPerimeter=0;entryX=0.75;entryY=0.5;entryDx=0;entryDy=0;entryPerimeter=0;" edge="1" parent="VGlrAe6bgB-VciZrxGqc-404" source="VGlrAe6bgB-VciZrxGqc-95" target="VGlrAe6bgB-VciZrxGqc-94">
          <mxGeometry relative="1" as="geometry" />
        </mxCell>
        <mxCell id="VGlrAe6bgB-VciZrxGqc-116" value="节表" style="edgeLabel;html=1;align=center;verticalAlign=middle;resizable=0;points=[];" vertex="1" connectable="0" parent="VGlrAe6bgB-VciZrxGqc-104">
          <mxGeometry x="0.0341" y="-1" relative="1" as="geometry">
            <mxPoint x="-2" as="offset" />
          </mxGeometry>
        </mxCell>
        <mxCell id="VGlrAe6bgB-VciZrxGqc-110" style="edgeStyle=orthogonalEdgeStyle;rounded=0;orthogonalLoop=1;jettySize=auto;html=1;exitX=0.75;exitY=0.5;exitDx=0;exitDy=0;exitPerimeter=0;entryX=0.75;entryY=0.5;entryDx=0;entryDy=0;entryPerimeter=0;" edge="1" parent="VGlrAe6bgB-VciZrxGqc-404" source="VGlrAe6bgB-VciZrxGqc-92" target="VGlrAe6bgB-VciZrxGqc-91">
          <mxGeometry relative="1" as="geometry" />
        </mxCell>
        <mxCell id="VGlrAe6bgB-VciZrxGqc-121" style="edgeStyle=orthogonalEdgeStyle;rounded=0;orthogonalLoop=1;jettySize=auto;html=1;exitX=0.75;exitY=0.5;exitDx=0;exitDy=0;exitPerimeter=0;entryX=0.75;entryY=0.5;entryDx=0;entryDy=0;entryPerimeter=0;" edge="1" parent="VGlrAe6bgB-VciZrxGqc-404" source="VGlrAe6bgB-VciZrxGqc-95" target="VGlrAe6bgB-VciZrxGqc-96">
          <mxGeometry relative="1" as="geometry" />
        </mxCell>
        <mxCell id="VGlrAe6bgB-VciZrxGqc-128" value="节数据" style="edgeLabel;html=1;align=center;verticalAlign=middle;resizable=0;points=[];" vertex="1" connectable="0" parent="VGlrAe6bgB-VciZrxGqc-121">
          <mxGeometry x="-0.0895" y="-1" relative="1" as="geometry">
            <mxPoint x="-1" as="offset" />
          </mxGeometry>
        </mxCell>
        <mxCell id="VGlrAe6bgB-VciZrxGqc-134" value="" style="group" vertex="1" connectable="0" parent="1">
          <mxGeometry x="1413" y="166.5" width="370" height="594" as="geometry" />
        </mxCell>
        <mxCell id="VGlrAe6bgB-VciZrxGqc-1" value="" style="shape=table;startSize=0;container=1;collapsible=0;childLayout=tableLayout;fontSize=16;" vertex="1" parent="VGlrAe6bgB-VciZrxGqc-134">
          <mxGeometry y="13" width="290" height="581" as="geometry" />
        </mxCell>
        <mxCell id="VGlrAe6bgB-VciZrxGqc-22" style="shape=tableRow;horizontal=0;startSize=0;swimlaneHead=0;swimlaneBody=0;strokeColor=inherit;top=0;left=0;bottom=0;right=0;collapsible=0;dropTarget=0;fillColor=none;points=[[0,0.5],[1,0.5]];portConstraint=eastwest;fontSize=16;" vertex="1" parent="VGlrAe6bgB-VciZrxGqc-1">
          <mxGeometry width="290" height="40" as="geometry" />
        </mxCell>
        <mxCell id="VGlrAe6bgB-VciZrxGqc-23" value="DOS&amp;nbsp; &amp;nbsp;&#39;MZ&#39;&amp;nbsp; &amp;nbsp;HEADER" style="shape=partialRectangle;html=1;whiteSpace=wrap;connectable=0;strokeColor=inherit;overflow=hidden;fillColor=none;top=0;left=0;bottom=0;right=0;pointerEvents=1;fontSize=16;" vertex="1" parent="VGlrAe6bgB-VciZrxGqc-22">
          <mxGeometry width="290" height="40" as="geometry">
            <mxRectangle width="290" height="40" as="alternateBounds" />
          </mxGeometry>
        </mxCell>
        <mxCell id="VGlrAe6bgB-VciZrxGqc-20" style="shape=tableRow;horizontal=0;startSize=0;swimlaneHead=0;swimlaneBody=0;strokeColor=inherit;top=0;left=0;bottom=0;right=0;collapsible=0;dropTarget=0;fillColor=none;points=[[0,0.5],[1,0.5]];portConstraint=eastwest;fontSize=16;" vertex="1" parent="VGlrAe6bgB-VciZrxGqc-1">
          <mxGeometry y="40" width="290" height="40" as="geometry" />
        </mxCell>
        <mxCell id="VGlrAe6bgB-VciZrxGqc-21" value="DOS stub" style="shape=partialRectangle;html=1;whiteSpace=wrap;connectable=0;strokeColor=inherit;overflow=hidden;fillColor=none;top=0;left=0;bottom=0;right=0;pointerEvents=1;fontSize=16;" vertex="1" parent="VGlrAe6bgB-VciZrxGqc-20">
          <mxGeometry width="290" height="40" as="geometry">
            <mxRectangle width="290" height="40" as="alternateBounds" />
          </mxGeometry>
        </mxCell>
        <mxCell id="VGlrAe6bgB-VciZrxGqc-18" style="shape=tableRow;horizontal=0;startSize=0;swimlaneHead=0;swimlaneBody=0;strokeColor=inherit;top=0;left=0;bottom=0;right=0;collapsible=0;dropTarget=0;fillColor=none;points=[[0,0.5],[1,0.5]];portConstraint=eastwest;fontSize=16;" vertex="1" parent="VGlrAe6bgB-VciZrxGqc-1">
          <mxGeometry y="80" width="290" height="241" as="geometry" />
        </mxCell>
        <mxCell id="VGlrAe6bgB-VciZrxGqc-19" style="shape=partialRectangle;html=1;whiteSpace=wrap;connectable=0;strokeColor=inherit;overflow=hidden;fillColor=none;top=0;left=0;bottom=0;right=0;pointerEvents=1;fontSize=16;" vertex="1" parent="VGlrAe6bgB-VciZrxGqc-18">
          <mxGeometry width="290" height="241" as="geometry">
            <mxRectangle width="290" height="241" as="alternateBounds" />
          </mxGeometry>
        </mxCell>
        <mxCell id="VGlrAe6bgB-VciZrxGqc-16" style="shape=tableRow;horizontal=0;startSize=0;swimlaneHead=0;swimlaneBody=0;strokeColor=inherit;top=0;left=0;bottom=0;right=0;collapsible=0;dropTarget=0;fillColor=none;points=[[0,0.5],[1,0.5]];portConstraint=eastwest;fontSize=16;" vertex="1" parent="VGlrAe6bgB-VciZrxGqc-1">
          <mxGeometry y="321" width="290" height="60" as="geometry" />
        </mxCell>
        <mxCell id="VGlrAe6bgB-VciZrxGqc-17" value="n × IMAGE_SECTION_HEADER" style="shape=partialRectangle;html=1;whiteSpace=wrap;connectable=0;strokeColor=inherit;overflow=hidden;fillColor=none;top=0;left=0;bottom=0;right=0;pointerEvents=1;fontSize=16;" vertex="1" parent="VGlrAe6bgB-VciZrxGqc-16">
          <mxGeometry width="290" height="60" as="geometry">
            <mxRectangle width="290" height="60" as="alternateBounds" />
          </mxGeometry>
        </mxCell>
        <mxCell id="VGlrAe6bgB-VciZrxGqc-74" style="shape=tableRow;horizontal=0;startSize=0;swimlaneHead=0;swimlaneBody=0;strokeColor=inherit;top=0;left=0;bottom=0;right=0;collapsible=0;dropTarget=0;fillColor=none;points=[[0,0.5],[1,0.5]];portConstraint=eastwest;fontSize=16;" vertex="1" parent="VGlrAe6bgB-VciZrxGqc-1">
          <mxGeometry y="381" width="290" height="40" as="geometry" />
        </mxCell>
        <mxCell id="VGlrAe6bgB-VciZrxGqc-75" value=".text" style="shape=partialRectangle;html=1;whiteSpace=wrap;connectable=0;strokeColor=inherit;overflow=hidden;fillColor=none;top=0;left=0;bottom=0;right=0;pointerEvents=1;fontSize=16;" vertex="1" parent="VGlrAe6bgB-VciZrxGqc-74">
          <mxGeometry width="290" height="40" as="geometry">
            <mxRectangle width="290" height="40" as="alternateBounds" />
          </mxGeometry>
        </mxCell>
        <mxCell id="VGlrAe6bgB-VciZrxGqc-76" style="shape=tableRow;horizontal=0;startSize=0;swimlaneHead=0;swimlaneBody=0;strokeColor=inherit;top=0;left=0;bottom=0;right=0;collapsible=0;dropTarget=0;fillColor=none;points=[[0,0.5],[1,0.5]];portConstraint=eastwest;fontSize=16;" vertex="1" parent="VGlrAe6bgB-VciZrxGqc-1">
          <mxGeometry y="421" width="290" height="40" as="geometry" />
        </mxCell>
        <mxCell id="VGlrAe6bgB-VciZrxGqc-77" value=".data" style="shape=partialRectangle;html=1;whiteSpace=wrap;connectable=0;strokeColor=inherit;overflow=hidden;fillColor=none;top=0;left=0;bottom=0;right=0;pointerEvents=1;fontSize=16;" vertex="1" parent="VGlrAe6bgB-VciZrxGqc-76">
          <mxGeometry width="290" height="40" as="geometry">
            <mxRectangle width="290" height="40" as="alternateBounds" />
          </mxGeometry>
        </mxCell>
        <mxCell id="VGlrAe6bgB-VciZrxGqc-78" style="shape=tableRow;horizontal=0;startSize=0;swimlaneHead=0;swimlaneBody=0;strokeColor=inherit;top=0;left=0;bottom=0;right=0;collapsible=0;dropTarget=0;fillColor=none;points=[[0,0.5],[1,0.5]];portConstraint=eastwest;fontSize=16;" vertex="1" parent="VGlrAe6bgB-VciZrxGqc-1">
          <mxGeometry y="461" width="290" height="40" as="geometry" />
        </mxCell>
        <mxCell id="VGlrAe6bgB-VciZrxGqc-79" value=".rsrc" style="shape=partialRectangle;html=1;whiteSpace=wrap;connectable=0;strokeColor=inherit;overflow=hidden;fillColor=none;top=0;left=0;bottom=0;right=0;pointerEvents=1;fontSize=16;" vertex="1" parent="VGlrAe6bgB-VciZrxGqc-78">
          <mxGeometry width="290" height="40" as="geometry">
            <mxRectangle width="290" height="40" as="alternateBounds" />
          </mxGeometry>
        </mxCell>
        <mxCell id="VGlrAe6bgB-VciZrxGqc-126" style="shape=tableRow;horizontal=0;startSize=0;swimlaneHead=0;swimlaneBody=0;strokeColor=inherit;top=0;left=0;bottom=0;right=0;collapsible=0;dropTarget=0;fillColor=none;points=[[0,0.5],[1,0.5]];portConstraint=eastwest;fontSize=16;" vertex="1" parent="VGlrAe6bgB-VciZrxGqc-1">
          <mxGeometry y="501" width="290" height="40" as="geometry" />
        </mxCell>
        <mxCell id="VGlrAe6bgB-VciZrxGqc-127" value=".reloc" style="shape=partialRectangle;html=1;whiteSpace=wrap;connectable=0;strokeColor=inherit;overflow=hidden;fillColor=none;top=0;left=0;bottom=0;right=0;pointerEvents=1;fontSize=16;" vertex="1" parent="VGlrAe6bgB-VciZrxGqc-126">
          <mxGeometry width="290" height="40" as="geometry">
            <mxRectangle width="290" height="40" as="alternateBounds" />
          </mxGeometry>
        </mxCell>
        <mxCell id="VGlrAe6bgB-VciZrxGqc-124" style="shape=tableRow;horizontal=0;startSize=0;swimlaneHead=0;swimlaneBody=0;strokeColor=inherit;top=0;left=0;bottom=0;right=0;collapsible=0;dropTarget=0;fillColor=none;points=[[0,0.5],[1,0.5]];portConstraint=eastwest;fontSize=16;" vertex="1" parent="VGlrAe6bgB-VciZrxGqc-1">
          <mxGeometry y="541" width="290" height="40" as="geometry" />
        </mxCell>
        <mxCell id="VGlrAe6bgB-VciZrxGqc-125" value="......" style="shape=partialRectangle;html=1;whiteSpace=wrap;connectable=0;strokeColor=inherit;overflow=hidden;fillColor=none;top=0;left=0;bottom=0;right=0;pointerEvents=1;fontSize=16;" vertex="1" parent="VGlrAe6bgB-VciZrxGqc-124">
          <mxGeometry width="290" height="40" as="geometry">
            <mxRectangle width="290" height="40" as="alternateBounds" />
          </mxGeometry>
        </mxCell>
        <mxCell id="VGlrAe6bgB-VciZrxGqc-129" style="edgeStyle=orthogonalEdgeStyle;rounded=0;orthogonalLoop=1;jettySize=auto;html=1;exitX=1.001;exitY=0.11;exitDx=0;exitDy=0;exitPerimeter=0;entryX=1.001;entryY=0.438;entryDx=0;entryDy=0;entryPerimeter=0;" edge="1" parent="VGlrAe6bgB-VciZrxGqc-1" source="VGlrAe6bgB-VciZrxGqc-16" target="VGlrAe6bgB-VciZrxGqc-74">
          <mxGeometry relative="1" as="geometry">
            <mxPoint x="290" y="411" as="targetPoint" />
            <Array as="points">
              <mxPoint x="290" y="331" />
              <mxPoint x="310" y="331" />
              <mxPoint x="310" y="399" />
              <mxPoint x="290" y="399" />
            </Array>
          </mxGeometry>
        </mxCell>
        <mxCell id="VGlrAe6bgB-VciZrxGqc-131" style="edgeStyle=orthogonalEdgeStyle;rounded=0;orthogonalLoop=1;jettySize=auto;html=1;exitX=1;exitY=0.5;exitDx=0;exitDy=0;entryX=1;entryY=0.5;entryDx=0;entryDy=0;" edge="1" parent="VGlrAe6bgB-VciZrxGqc-134" source="VGlrAe6bgB-VciZrxGqc-16" target="VGlrAe6bgB-VciZrxGqc-78">
          <mxGeometry relative="1" as="geometry">
            <Array as="points">
              <mxPoint x="330" y="364" />
              <mxPoint x="330" y="494" />
            </Array>
          </mxGeometry>
        </mxCell>
        <mxCell id="VGlrAe6bgB-VciZrxGqc-130" style="edgeStyle=orthogonalEdgeStyle;rounded=0;orthogonalLoop=1;jettySize=auto;html=1;exitX=1;exitY=0.5;exitDx=0;exitDy=0;entryX=1;entryY=0.5;entryDx=0;entryDy=0;" edge="1" parent="VGlrAe6bgB-VciZrxGqc-134" source="VGlrAe6bgB-VciZrxGqc-16" target="VGlrAe6bgB-VciZrxGqc-76">
          <mxGeometry relative="1" as="geometry">
            <Array as="points">
              <mxPoint x="290" y="354" />
              <mxPoint x="320" y="354" />
              <mxPoint x="320" y="454" />
            </Array>
          </mxGeometry>
        </mxCell>
        <mxCell id="VGlrAe6bgB-VciZrxGqc-135" style="edgeStyle=orthogonalEdgeStyle;rounded=0;orthogonalLoop=1;jettySize=auto;html=1;exitX=1;exitY=0.5;exitDx=0;exitDy=0;entryX=1;entryY=0.5;entryDx=0;entryDy=0;" edge="1" parent="VGlrAe6bgB-VciZrxGqc-134" source="VGlrAe6bgB-VciZrxGqc-16" target="VGlrAe6bgB-VciZrxGqc-126">
          <mxGeometry relative="1" as="geometry">
            <Array as="points">
              <mxPoint x="290" y="374" />
              <mxPoint x="340" y="374" />
              <mxPoint x="340" y="534" />
            </Array>
          </mxGeometry>
        </mxCell>
        <mxCell id="VGlrAe6bgB-VciZrxGqc-24" value="" style="shape=table;startSize=0;container=1;collapsible=0;childLayout=tableLayout;fontSize=16;" vertex="1" parent="VGlrAe6bgB-VciZrxGqc-134">
          <mxGeometry x="10" y="110" width="270" height="200" as="geometry" />
        </mxCell>
        <mxCell id="VGlrAe6bgB-VciZrxGqc-43" style="shape=tableRow;horizontal=0;startSize=0;swimlaneHead=0;swimlaneBody=0;strokeColor=inherit;top=0;left=0;bottom=0;right=0;collapsible=0;dropTarget=0;fillColor=none;points=[[0,0.5],[1,0.5]];portConstraint=eastwest;fontSize=16;" vertex="1" parent="VGlrAe6bgB-VciZrxGqc-24">
          <mxGeometry width="270" height="40" as="geometry" />
        </mxCell>
        <mxCell id="VGlrAe6bgB-VciZrxGqc-44" value="&quot;PE&quot;,0,0" style="shape=partialRectangle;html=1;whiteSpace=wrap;connectable=0;strokeColor=inherit;overflow=hidden;fillColor=none;top=0;left=0;bottom=0;right=0;pointerEvents=1;fontSize=16;" vertex="1" parent="VGlrAe6bgB-VciZrxGqc-43">
          <mxGeometry width="270" height="40" as="geometry">
            <mxRectangle width="270" height="40" as="alternateBounds" />
          </mxGeometry>
        </mxCell>
        <mxCell id="VGlrAe6bgB-VciZrxGqc-41" style="shape=tableRow;horizontal=0;startSize=0;swimlaneHead=0;swimlaneBody=0;strokeColor=inherit;top=0;left=0;bottom=0;right=0;collapsible=0;dropTarget=0;fillColor=none;points=[[0,0.5],[1,0.5]];portConstraint=eastwest;fontSize=16;" vertex="1" parent="VGlrAe6bgB-VciZrxGqc-24">
          <mxGeometry y="40" width="270" height="40" as="geometry" />
        </mxCell>
        <mxCell id="VGlrAe6bgB-VciZrxGqc-42" value="IMAGE_FILE_HEADER" style="shape=partialRectangle;html=1;whiteSpace=wrap;connectable=0;strokeColor=inherit;overflow=hidden;fillColor=none;top=0;left=0;bottom=0;right=0;pointerEvents=1;fontSize=16;" vertex="1" parent="VGlrAe6bgB-VciZrxGqc-41">
          <mxGeometry width="270" height="40" as="geometry">
            <mxRectangle width="270" height="40" as="alternateBounds" />
          </mxGeometry>
        </mxCell>
        <mxCell id="VGlrAe6bgB-VciZrxGqc-25" value="" style="shape=tableRow;horizontal=0;startSize=0;swimlaneHead=0;swimlaneBody=0;strokeColor=inherit;top=0;left=0;bottom=0;right=0;collapsible=0;dropTarget=0;fillColor=none;points=[[0,0.5],[1,0.5]];portConstraint=eastwest;fontSize=16;" vertex="1" parent="VGlrAe6bgB-VciZrxGqc-24">
          <mxGeometry y="80" width="270" height="120" as="geometry" />
        </mxCell>
        <mxCell id="VGlrAe6bgB-VciZrxGqc-26" value="IMAGE_OPTIONAL_HEADER32&lt;div&gt;&lt;br&gt;&lt;/div&gt;&lt;div&gt;&lt;br&gt;&lt;/div&gt;" style="shape=partialRectangle;html=1;whiteSpace=wrap;connectable=0;strokeColor=inherit;overflow=hidden;fillColor=none;top=0;left=0;bottom=0;right=0;pointerEvents=1;fontSize=16;" vertex="1" parent="VGlrAe6bgB-VciZrxGqc-25">
          <mxGeometry width="270" height="120" as="geometry">
            <mxRectangle width="270" height="120" as="alternateBounds" />
          </mxGeometry>
        </mxCell>
        <mxCell id="VGlrAe6bgB-VciZrxGqc-58" value="" style="shape=table;startSize=0;container=1;collapsible=0;childLayout=tableLayout;fontSize=16;" vertex="1" parent="VGlrAe6bgB-VciZrxGqc-134">
          <mxGeometry x="35" y="254" width="220" height="40" as="geometry" />
        </mxCell>
        <mxCell id="VGlrAe6bgB-VciZrxGqc-59" value="" style="shape=tableRow;horizontal=0;startSize=0;swimlaneHead=0;swimlaneBody=0;strokeColor=inherit;top=0;left=0;bottom=0;right=0;collapsible=0;dropTarget=0;fillColor=none;points=[[0,0.5],[1,0.5]];portConstraint=eastwest;fontSize=16;" vertex="1" parent="VGlrAe6bgB-VciZrxGqc-58">
          <mxGeometry width="220" height="40" as="geometry" />
        </mxCell>
        <mxCell id="VGlrAe6bgB-VciZrxGqc-60" value="IMAGE_DATA_DIRECTORY" style="shape=partialRectangle;html=1;whiteSpace=wrap;connectable=0;strokeColor=inherit;overflow=hidden;fillColor=none;top=0;left=0;bottom=0;right=0;pointerEvents=1;fontSize=16;" vertex="1" parent="VGlrAe6bgB-VciZrxGqc-59">
          <mxGeometry width="220" height="40" as="geometry">
            <mxRectangle width="220" height="40" as="alternateBounds" />
          </mxGeometry>
        </mxCell>
        <mxCell id="VGlrAe6bgB-VciZrxGqc-105" value="文件头" style="text;strokeColor=none;fillColor=none;html=1;fontSize=13;fontStyle=0;verticalAlign=middle;align=center;" vertex="1" parent="VGlrAe6bgB-VciZrxGqc-134">
          <mxGeometry x="270" width="100" height="40" as="geometry" />
        </mxCell>
        <mxCell id="VGlrAe6bgB-VciZrxGqc-106" value="文件尾" style="text;strokeColor=none;fillColor=none;html=1;fontSize=13;fontStyle=0;verticalAlign=middle;align=center;" vertex="1" parent="VGlrAe6bgB-VciZrxGqc-134">
          <mxGeometry x="270" y="571" width="100" height="40" as="geometry" />
        </mxCell>
        <mxCell id="VGlrAe6bgB-VciZrxGqc-133" style="edgeStyle=orthogonalEdgeStyle;rounded=0;orthogonalLoop=1;jettySize=auto;html=1;exitX=1;exitY=0.5;exitDx=0;exitDy=0;entryX=1;entryY=0.5;entryDx=0;entryDy=0;" edge="1" parent="VGlrAe6bgB-VciZrxGqc-134">
          <mxGeometry relative="1" as="geometry">
            <mxPoint x="290" y="374" as="sourcePoint" />
            <mxPoint x="290" y="574" as="targetPoint" />
            <Array as="points">
              <mxPoint x="290" y="384" />
              <mxPoint x="350" y="384" />
              <mxPoint x="350" y="574" />
            </Array>
          </mxGeometry>
        </mxCell>
        <mxCell id="VGlrAe6bgB-VciZrxGqc-189" value="" style="line;strokeWidth=2;html=1;" vertex="1" parent="1">
          <mxGeometry x="1333" y="260.38157894736844" width="70" height="2.995614035087719" as="geometry" />
        </mxCell>
        <mxCell id="VGlrAe6bgB-VciZrxGqc-190" style="edgeStyle=orthogonalEdgeStyle;rounded=0;orthogonalLoop=1;jettySize=auto;html=1;exitX=0.75;exitY=0.5;exitDx=0;exitDy=0;exitPerimeter=0;" edge="1" parent="1" source="VGlrAe6bgB-VciZrxGqc-191">
          <mxGeometry relative="1" as="geometry">
            <mxPoint x="1385.5" y="260.38157894736844" as="targetPoint" />
          </mxGeometry>
        </mxCell>
        <mxCell id="VGlrAe6bgB-VciZrxGqc-191" value="" style="line;strokeWidth=2;html=1;" vertex="1" parent="1">
          <mxGeometry x="1333" y="497.03508771929825" width="70" height="2.995614035087719" as="geometry" />
        </mxCell>
        <mxCell id="VGlrAe6bgB-VciZrxGqc-192" value="" style="line;strokeWidth=2;html=1;" vertex="1" parent="1">
          <mxGeometry x="1333" y="560.496783625731" width="70" height="2.995614035087719" as="geometry" />
        </mxCell>
        <mxCell id="VGlrAe6bgB-VciZrxGqc-193" style="edgeStyle=orthogonalEdgeStyle;rounded=0;orthogonalLoop=1;jettySize=auto;html=1;exitX=0.75;exitY=0.5;exitDx=0;exitDy=0;exitPerimeter=0;entryX=0.75;entryY=0.5;entryDx=0;entryDy=0;entryPerimeter=0;" edge="1" parent="1" source="VGlrAe6bgB-VciZrxGqc-194" target="VGlrAe6bgB-VciZrxGqc-192">
          <mxGeometry relative="1" as="geometry">
            <mxPoint x="1385.5" y="659.796783625731" as="targetPoint" />
          </mxGeometry>
        </mxCell>
        <mxCell id="VGlrAe6bgB-VciZrxGqc-194" value="" style="line;strokeWidth=2;html=1;" vertex="1" parent="1">
          <mxGeometry x="1333" y="760.5043859649122" width="70" height="2.995614035087719" as="geometry" />
        </mxCell>
        <mxCell id="VGlrAe6bgB-VciZrxGqc-195" style="edgeStyle=orthogonalEdgeStyle;rounded=0;orthogonalLoop=1;jettySize=auto;html=1;exitX=0.75;exitY=0.5;exitDx=0;exitDy=0;exitPerimeter=0;entryX=0.75;entryY=0.5;entryDx=0;entryDy=0;entryPerimeter=0;verticalAlign=middle;horizontal=0;" edge="1" parent="1" target="VGlrAe6bgB-VciZrxGqc-189">
          <mxGeometry relative="1" as="geometry">
            <mxPoint x="1385.5" y="180.9978070175439" as="sourcePoint" />
          </mxGeometry>
        </mxCell>
        <mxCell id="VGlrAe6bgB-VciZrxGqc-196" style="edgeStyle=orthogonalEdgeStyle;rounded=0;orthogonalLoop=1;jettySize=auto;html=1;exitX=0.75;exitY=0.5;exitDx=0;exitDy=0;exitPerimeter=0;entryX=0.75;entryY=0.5;entryDx=0;entryDy=0;entryPerimeter=0;" edge="1" parent="1" source="VGlrAe6bgB-VciZrxGqc-189" target="VGlrAe6bgB-VciZrxGqc-191">
          <mxGeometry relative="1" as="geometry" />
        </mxCell>
        <mxCell id="VGlrAe6bgB-VciZrxGqc-406" value="NT 头" style="edgeLabel;html=1;align=center;verticalAlign=middle;resizable=0;points=[];" vertex="1" connectable="0" parent="VGlrAe6bgB-VciZrxGqc-196">
          <mxGeometry x="-0.054" y="-1" relative="1" as="geometry">
            <mxPoint as="offset" />
          </mxGeometry>
        </mxCell>
        <mxCell id="VGlrAe6bgB-VciZrxGqc-198" style="edgeStyle=orthogonalEdgeStyle;rounded=0;orthogonalLoop=1;jettySize=auto;html=1;exitX=0.75;exitY=0.5;exitDx=0;exitDy=0;exitPerimeter=0;entryX=0.75;entryY=0.5;entryDx=0;entryDy=0;entryPerimeter=0;" edge="1" parent="1" source="VGlrAe6bgB-VciZrxGqc-191" target="VGlrAe6bgB-VciZrxGqc-192">
          <mxGeometry relative="1" as="geometry" />
        </mxCell>
        <mxCell id="VGlrAe6bgB-VciZrxGqc-199" style="edgeStyle=orthogonalEdgeStyle;rounded=0;orthogonalLoop=1;jettySize=auto;html=1;exitX=0.75;exitY=0.5;exitDx=0;exitDy=0;exitPerimeter=0;entryX=0.75;entryY=0.5;entryDx=0;entryDy=0;entryPerimeter=0;" edge="1" parent="1" source="VGlrAe6bgB-VciZrxGqc-192" target="VGlrAe6bgB-VciZrxGqc-191">
          <mxGeometry relative="1" as="geometry" />
        </mxCell>
        <mxCell id="VGlrAe6bgB-VciZrxGqc-200" value="节表" style="edgeLabel;html=1;align=center;verticalAlign=middle;resizable=0;points=[];" vertex="1" connectable="0" parent="VGlrAe6bgB-VciZrxGqc-199">
          <mxGeometry x="0.0341" y="-1" relative="1" as="geometry">
            <mxPoint x="-2" as="offset" />
          </mxGeometry>
        </mxCell>
        <mxCell id="VGlrAe6bgB-VciZrxGqc-201" style="edgeStyle=orthogonalEdgeStyle;rounded=0;orthogonalLoop=1;jettySize=auto;html=1;exitX=0.75;exitY=0.5;exitDx=0;exitDy=0;exitPerimeter=0;entryX=0.75;entryY=0.5;entryDx=0;entryDy=0;entryPerimeter=0;" edge="1" parent="1" source="VGlrAe6bgB-VciZrxGqc-189">
          <mxGeometry relative="1" as="geometry">
            <mxPoint x="1385.5" y="180.9978070175439" as="targetPoint" />
          </mxGeometry>
        </mxCell>
        <mxCell id="VGlrAe6bgB-VciZrxGqc-407" value="DOS 头" style="edgeLabel;html=1;align=center;verticalAlign=middle;resizable=0;points=[];" vertex="1" connectable="0" parent="VGlrAe6bgB-VciZrxGqc-201">
          <mxGeometry x="0.0866" y="1" relative="1" as="geometry">
            <mxPoint as="offset" />
          </mxGeometry>
        </mxCell>
        <mxCell id="VGlrAe6bgB-VciZrxGqc-203" style="edgeStyle=orthogonalEdgeStyle;rounded=0;orthogonalLoop=1;jettySize=auto;html=1;exitX=0.75;exitY=0.5;exitDx=0;exitDy=0;exitPerimeter=0;entryX=0.75;entryY=0.5;entryDx=0;entryDy=0;entryPerimeter=0;" edge="1" parent="1" source="VGlrAe6bgB-VciZrxGqc-192" target="VGlrAe6bgB-VciZrxGqc-194">
          <mxGeometry relative="1" as="geometry" />
        </mxCell>
        <mxCell id="VGlrAe6bgB-VciZrxGqc-204" value="节数据" style="edgeLabel;html=1;align=center;verticalAlign=middle;resizable=0;points=[];" vertex="1" connectable="0" parent="VGlrAe6bgB-VciZrxGqc-203">
          <mxGeometry x="-0.0895" y="-1" relative="1" as="geometry">
            <mxPoint x="-1" as="offset" />
          </mxGeometry>
        </mxCell>
        <mxCell id="VGlrAe6bgB-VciZrxGqc-205" value="" style="group" vertex="1" connectable="0" parent="1">
          <mxGeometry x="1413" y="166.5" width="370" height="594" as="geometry" />
        </mxCell>
        <mxCell id="VGlrAe6bgB-VciZrxGqc-206" value="" style="shape=table;startSize=0;container=1;collapsible=0;childLayout=tableLayout;fontSize=16;" vertex="1" parent="VGlrAe6bgB-VciZrxGqc-205">
          <mxGeometry y="13" width="290" height="581" as="geometry" />
        </mxCell>
        <mxCell id="VGlrAe6bgB-VciZrxGqc-207" style="shape=tableRow;horizontal=0;startSize=0;swimlaneHead=0;swimlaneBody=0;strokeColor=inherit;top=0;left=0;bottom=0;right=0;collapsible=0;dropTarget=0;fillColor=none;points=[[0,0.5],[1,0.5]];portConstraint=eastwest;fontSize=16;" vertex="1" parent="VGlrAe6bgB-VciZrxGqc-206">
          <mxGeometry width="290" height="40" as="geometry" />
        </mxCell>
        <mxCell id="VGlrAe6bgB-VciZrxGqc-208" value="DOS&amp;nbsp; &amp;nbsp;&#39;MZ&#39;&amp;nbsp; &amp;nbsp;HEADER" style="shape=partialRectangle;html=1;whiteSpace=wrap;connectable=0;strokeColor=inherit;overflow=hidden;fillColor=none;top=0;left=0;bottom=0;right=0;pointerEvents=1;fontSize=16;" vertex="1" parent="VGlrAe6bgB-VciZrxGqc-207">
          <mxGeometry width="290" height="40" as="geometry">
            <mxRectangle width="290" height="40" as="alternateBounds" />
          </mxGeometry>
        </mxCell>
        <mxCell id="VGlrAe6bgB-VciZrxGqc-209" style="shape=tableRow;horizontal=0;startSize=0;swimlaneHead=0;swimlaneBody=0;strokeColor=inherit;top=0;left=0;bottom=0;right=0;collapsible=0;dropTarget=0;fillColor=none;points=[[0,0.5],[1,0.5]];portConstraint=eastwest;fontSize=16;" vertex="1" parent="VGlrAe6bgB-VciZrxGqc-206">
          <mxGeometry y="40" width="290" height="40" as="geometry" />
        </mxCell>
        <mxCell id="VGlrAe6bgB-VciZrxGqc-210" value="DOS stub" style="shape=partialRectangle;html=1;whiteSpace=wrap;connectable=0;strokeColor=inherit;overflow=hidden;fillColor=none;top=0;left=0;bottom=0;right=0;pointerEvents=1;fontSize=16;" vertex="1" parent="VGlrAe6bgB-VciZrxGqc-209">
          <mxGeometry width="290" height="40" as="geometry">
            <mxRectangle width="290" height="40" as="alternateBounds" />
          </mxGeometry>
        </mxCell>
        <mxCell id="VGlrAe6bgB-VciZrxGqc-211" style="shape=tableRow;horizontal=0;startSize=0;swimlaneHead=0;swimlaneBody=0;strokeColor=inherit;top=0;left=0;bottom=0;right=0;collapsible=0;dropTarget=0;fillColor=none;points=[[0,0.5],[1,0.5]];portConstraint=eastwest;fontSize=16;" vertex="1" parent="VGlrAe6bgB-VciZrxGqc-206">
          <mxGeometry y="80" width="290" height="241" as="geometry" />
        </mxCell>
        <mxCell id="VGlrAe6bgB-VciZrxGqc-212" style="shape=partialRectangle;html=1;whiteSpace=wrap;connectable=0;strokeColor=inherit;overflow=hidden;fillColor=none;top=0;left=0;bottom=0;right=0;pointerEvents=1;fontSize=16;" vertex="1" parent="VGlrAe6bgB-VciZrxGqc-211">
          <mxGeometry width="290" height="241" as="geometry">
            <mxRectangle width="290" height="241" as="alternateBounds" />
          </mxGeometry>
        </mxCell>
        <mxCell id="VGlrAe6bgB-VciZrxGqc-213" style="shape=tableRow;horizontal=0;startSize=0;swimlaneHead=0;swimlaneBody=0;strokeColor=inherit;top=0;left=0;bottom=0;right=0;collapsible=0;dropTarget=0;fillColor=none;points=[[0,0.5],[1,0.5]];portConstraint=eastwest;fontSize=16;" vertex="1" parent="VGlrAe6bgB-VciZrxGqc-206">
          <mxGeometry y="321" width="290" height="60" as="geometry" />
        </mxCell>
        <mxCell id="VGlrAe6bgB-VciZrxGqc-214" value="n × IMAGE_SECTION_HEADER" style="shape=partialRectangle;html=1;whiteSpace=wrap;connectable=0;strokeColor=inherit;overflow=hidden;fillColor=none;top=0;left=0;bottom=0;right=0;pointerEvents=1;fontSize=16;" vertex="1" parent="VGlrAe6bgB-VciZrxGqc-213">
          <mxGeometry width="290" height="60" as="geometry">
            <mxRectangle width="290" height="60" as="alternateBounds" />
          </mxGeometry>
        </mxCell>
        <mxCell id="VGlrAe6bgB-VciZrxGqc-215" style="shape=tableRow;horizontal=0;startSize=0;swimlaneHead=0;swimlaneBody=0;strokeColor=inherit;top=0;left=0;bottom=0;right=0;collapsible=0;dropTarget=0;fillColor=none;points=[[0,0.5],[1,0.5]];portConstraint=eastwest;fontSize=16;" vertex="1" parent="VGlrAe6bgB-VciZrxGqc-206">
          <mxGeometry y="381" width="290" height="40" as="geometry" />
        </mxCell>
        <mxCell id="VGlrAe6bgB-VciZrxGqc-216" value=".text" style="shape=partialRectangle;html=1;whiteSpace=wrap;connectable=0;strokeColor=inherit;overflow=hidden;fillColor=none;top=0;left=0;bottom=0;right=0;pointerEvents=1;fontSize=16;" vertex="1" parent="VGlrAe6bgB-VciZrxGqc-215">
          <mxGeometry width="290" height="40" as="geometry">
            <mxRectangle width="290" height="40" as="alternateBounds" />
          </mxGeometry>
        </mxCell>
        <mxCell id="VGlrAe6bgB-VciZrxGqc-217" style="shape=tableRow;horizontal=0;startSize=0;swimlaneHead=0;swimlaneBody=0;strokeColor=inherit;top=0;left=0;bottom=0;right=0;collapsible=0;dropTarget=0;fillColor=none;points=[[0,0.5],[1,0.5]];portConstraint=eastwest;fontSize=16;" vertex="1" parent="VGlrAe6bgB-VciZrxGqc-206">
          <mxGeometry y="421" width="290" height="40" as="geometry" />
        </mxCell>
        <mxCell id="VGlrAe6bgB-VciZrxGqc-218" value=".data" style="shape=partialRectangle;html=1;whiteSpace=wrap;connectable=0;strokeColor=inherit;overflow=hidden;fillColor=none;top=0;left=0;bottom=0;right=0;pointerEvents=1;fontSize=16;" vertex="1" parent="VGlrAe6bgB-VciZrxGqc-217">
          <mxGeometry width="290" height="40" as="geometry">
            <mxRectangle width="290" height="40" as="alternateBounds" />
          </mxGeometry>
        </mxCell>
        <mxCell id="VGlrAe6bgB-VciZrxGqc-219" style="shape=tableRow;horizontal=0;startSize=0;swimlaneHead=0;swimlaneBody=0;strokeColor=inherit;top=0;left=0;bottom=0;right=0;collapsible=0;dropTarget=0;fillColor=none;points=[[0,0.5],[1,0.5]];portConstraint=eastwest;fontSize=16;" vertex="1" parent="VGlrAe6bgB-VciZrxGqc-206">
          <mxGeometry y="461" width="290" height="40" as="geometry" />
        </mxCell>
        <mxCell id="VGlrAe6bgB-VciZrxGqc-220" value=".rsrc" style="shape=partialRectangle;html=1;whiteSpace=wrap;connectable=0;strokeColor=inherit;overflow=hidden;fillColor=none;top=0;left=0;bottom=0;right=0;pointerEvents=1;fontSize=16;" vertex="1" parent="VGlrAe6bgB-VciZrxGqc-219">
          <mxGeometry width="290" height="40" as="geometry">
            <mxRectangle width="290" height="40" as="alternateBounds" />
          </mxGeometry>
        </mxCell>
        <mxCell id="VGlrAe6bgB-VciZrxGqc-221" style="shape=tableRow;horizontal=0;startSize=0;swimlaneHead=0;swimlaneBody=0;strokeColor=inherit;top=0;left=0;bottom=0;right=0;collapsible=0;dropTarget=0;fillColor=none;points=[[0,0.5],[1,0.5]];portConstraint=eastwest;fontSize=16;" vertex="1" parent="VGlrAe6bgB-VciZrxGqc-206">
          <mxGeometry y="501" width="290" height="40" as="geometry" />
        </mxCell>
        <mxCell id="VGlrAe6bgB-VciZrxGqc-222" value=".reloc" style="shape=partialRectangle;html=1;whiteSpace=wrap;connectable=0;strokeColor=inherit;overflow=hidden;fillColor=none;top=0;left=0;bottom=0;right=0;pointerEvents=1;fontSize=16;" vertex="1" parent="VGlrAe6bgB-VciZrxGqc-221">
          <mxGeometry width="290" height="40" as="geometry">
            <mxRectangle width="290" height="40" as="alternateBounds" />
          </mxGeometry>
        </mxCell>
        <mxCell id="VGlrAe6bgB-VciZrxGqc-223" style="shape=tableRow;horizontal=0;startSize=0;swimlaneHead=0;swimlaneBody=0;strokeColor=inherit;top=0;left=0;bottom=0;right=0;collapsible=0;dropTarget=0;fillColor=none;points=[[0,0.5],[1,0.5]];portConstraint=eastwest;fontSize=16;" vertex="1" parent="VGlrAe6bgB-VciZrxGqc-206">
          <mxGeometry y="541" width="290" height="40" as="geometry" />
        </mxCell>
        <mxCell id="VGlrAe6bgB-VciZrxGqc-224" value="......" style="shape=partialRectangle;html=1;whiteSpace=wrap;connectable=0;strokeColor=inherit;overflow=hidden;fillColor=none;top=0;left=0;bottom=0;right=0;pointerEvents=1;fontSize=16;" vertex="1" parent="VGlrAe6bgB-VciZrxGqc-223">
          <mxGeometry width="290" height="40" as="geometry">
            <mxRectangle width="290" height="40" as="alternateBounds" />
          </mxGeometry>
        </mxCell>
        <mxCell id="VGlrAe6bgB-VciZrxGqc-225" style="edgeStyle=orthogonalEdgeStyle;rounded=0;orthogonalLoop=1;jettySize=auto;html=1;exitX=1.001;exitY=0.11;exitDx=0;exitDy=0;exitPerimeter=0;entryX=1.001;entryY=0.438;entryDx=0;entryDy=0;entryPerimeter=0;" edge="1" parent="VGlrAe6bgB-VciZrxGqc-206" source="VGlrAe6bgB-VciZrxGqc-213" target="VGlrAe6bgB-VciZrxGqc-215">
          <mxGeometry relative="1" as="geometry">
            <mxPoint x="290" y="411" as="targetPoint" />
            <Array as="points">
              <mxPoint x="290" y="331" />
              <mxPoint x="310" y="331" />
              <mxPoint x="310" y="399" />
              <mxPoint x="290" y="399" />
            </Array>
          </mxGeometry>
        </mxCell>
        <mxCell id="VGlrAe6bgB-VciZrxGqc-226" style="edgeStyle=orthogonalEdgeStyle;rounded=0;orthogonalLoop=1;jettySize=auto;html=1;exitX=1;exitY=0.5;exitDx=0;exitDy=0;entryX=1;entryY=0.5;entryDx=0;entryDy=0;" edge="1" parent="VGlrAe6bgB-VciZrxGqc-206" source="VGlrAe6bgB-VciZrxGqc-213" target="VGlrAe6bgB-VciZrxGqc-219">
          <mxGeometry relative="1" as="geometry">
            <Array as="points">
              <mxPoint x="330" y="351" />
              <mxPoint x="330" y="481" />
            </Array>
          </mxGeometry>
        </mxCell>
        <mxCell id="VGlrAe6bgB-VciZrxGqc-227" style="edgeStyle=orthogonalEdgeStyle;rounded=0;orthogonalLoop=1;jettySize=auto;html=1;exitX=1;exitY=0.5;exitDx=0;exitDy=0;entryX=1;entryY=0.5;entryDx=0;entryDy=0;" edge="1" parent="VGlrAe6bgB-VciZrxGqc-206" source="VGlrAe6bgB-VciZrxGqc-213" target="VGlrAe6bgB-VciZrxGqc-217">
          <mxGeometry relative="1" as="geometry">
            <Array as="points">
              <mxPoint x="290" y="341" />
              <mxPoint x="320" y="341" />
              <mxPoint x="320" y="441" />
            </Array>
          </mxGeometry>
        </mxCell>
        <mxCell id="VGlrAe6bgB-VciZrxGqc-228" style="edgeStyle=orthogonalEdgeStyle;rounded=0;orthogonalLoop=1;jettySize=auto;html=1;exitX=1;exitY=0.5;exitDx=0;exitDy=0;entryX=1;entryY=0.5;entryDx=0;entryDy=0;" edge="1" parent="VGlrAe6bgB-VciZrxGqc-206" source="VGlrAe6bgB-VciZrxGqc-213" target="VGlrAe6bgB-VciZrxGqc-221">
          <mxGeometry relative="1" as="geometry">
            <Array as="points">
              <mxPoint x="290" y="361" />
              <mxPoint x="340" y="361" />
              <mxPoint x="340" y="521" />
            </Array>
          </mxGeometry>
        </mxCell>
        <mxCell id="VGlrAe6bgB-VciZrxGqc-229" value="" style="shape=table;startSize=0;container=1;collapsible=0;childLayout=tableLayout;fontSize=16;" vertex="1" parent="VGlrAe6bgB-VciZrxGqc-205">
          <mxGeometry x="10" y="110" width="270" height="200" as="geometry" />
        </mxCell>
        <mxCell id="VGlrAe6bgB-VciZrxGqc-230" style="shape=tableRow;horizontal=0;startSize=0;swimlaneHead=0;swimlaneBody=0;strokeColor=inherit;top=0;left=0;bottom=0;right=0;collapsible=0;dropTarget=0;fillColor=none;points=[[0,0.5],[1,0.5]];portConstraint=eastwest;fontSize=16;" vertex="1" parent="VGlrAe6bgB-VciZrxGqc-229">
          <mxGeometry width="270" height="40" as="geometry" />
        </mxCell>
        <mxCell id="VGlrAe6bgB-VciZrxGqc-231" value="&quot;PE&quot;,0,0" style="shape=partialRectangle;html=1;whiteSpace=wrap;connectable=0;strokeColor=inherit;overflow=hidden;fillColor=none;top=0;left=0;bottom=0;right=0;pointerEvents=1;fontSize=16;" vertex="1" parent="VGlrAe6bgB-VciZrxGqc-230">
          <mxGeometry width="270" height="40" as="geometry">
            <mxRectangle width="270" height="40" as="alternateBounds" />
          </mxGeometry>
        </mxCell>
        <mxCell id="VGlrAe6bgB-VciZrxGqc-232" style="shape=tableRow;horizontal=0;startSize=0;swimlaneHead=0;swimlaneBody=0;strokeColor=inherit;top=0;left=0;bottom=0;right=0;collapsible=0;dropTarget=0;fillColor=none;points=[[0,0.5],[1,0.5]];portConstraint=eastwest;fontSize=16;" vertex="1" parent="VGlrAe6bgB-VciZrxGqc-229">
          <mxGeometry y="40" width="270" height="40" as="geometry" />
        </mxCell>
        <mxCell id="VGlrAe6bgB-VciZrxGqc-233" value="IMAGE_FILE_HEADER" style="shape=partialRectangle;html=1;whiteSpace=wrap;connectable=0;strokeColor=inherit;overflow=hidden;fillColor=none;top=0;left=0;bottom=0;right=0;pointerEvents=1;fontSize=16;" vertex="1" parent="VGlrAe6bgB-VciZrxGqc-232">
          <mxGeometry width="270" height="40" as="geometry">
            <mxRectangle width="270" height="40" as="alternateBounds" />
          </mxGeometry>
        </mxCell>
        <mxCell id="VGlrAe6bgB-VciZrxGqc-234" value="" style="shape=tableRow;horizontal=0;startSize=0;swimlaneHead=0;swimlaneBody=0;strokeColor=inherit;top=0;left=0;bottom=0;right=0;collapsible=0;dropTarget=0;fillColor=none;points=[[0,0.5],[1,0.5]];portConstraint=eastwest;fontSize=16;" vertex="1" parent="VGlrAe6bgB-VciZrxGqc-229">
          <mxGeometry y="80" width="270" height="120" as="geometry" />
        </mxCell>
        <mxCell id="VGlrAe6bgB-VciZrxGqc-235" value="IMAGE_OPTIONAL_HEADER32&lt;div&gt;&lt;br&gt;&lt;/div&gt;&lt;div&gt;&lt;br&gt;&lt;/div&gt;" style="shape=partialRectangle;html=1;whiteSpace=wrap;connectable=0;strokeColor=inherit;overflow=hidden;fillColor=none;top=0;left=0;bottom=0;right=0;pointerEvents=1;fontSize=16;" vertex="1" parent="VGlrAe6bgB-VciZrxGqc-234">
          <mxGeometry width="270" height="120" as="geometry">
            <mxRectangle width="270" height="120" as="alternateBounds" />
          </mxGeometry>
        </mxCell>
        <mxCell id="VGlrAe6bgB-VciZrxGqc-236" value="" style="shape=table;startSize=0;container=1;collapsible=0;childLayout=tableLayout;fontSize=16;" vertex="1" parent="VGlrAe6bgB-VciZrxGqc-205">
          <mxGeometry x="35" y="254" width="220" height="40" as="geometry" />
        </mxCell>
        <mxCell id="VGlrAe6bgB-VciZrxGqc-237" value="" style="shape=tableRow;horizontal=0;startSize=0;swimlaneHead=0;swimlaneBody=0;strokeColor=inherit;top=0;left=0;bottom=0;right=0;collapsible=0;dropTarget=0;fillColor=none;points=[[0,0.5],[1,0.5]];portConstraint=eastwest;fontSize=16;" vertex="1" parent="VGlrAe6bgB-VciZrxGqc-236">
          <mxGeometry width="220" height="40" as="geometry" />
        </mxCell>
        <mxCell id="VGlrAe6bgB-VciZrxGqc-238" value="IMAGE_DATA_DIRECTORY" style="shape=partialRectangle;html=1;whiteSpace=wrap;connectable=0;strokeColor=inherit;overflow=hidden;fillColor=none;top=0;left=0;bottom=0;right=0;pointerEvents=1;fontSize=16;" vertex="1" parent="VGlrAe6bgB-VciZrxGqc-237">
          <mxGeometry width="220" height="40" as="geometry">
            <mxRectangle width="220" height="40" as="alternateBounds" />
          </mxGeometry>
        </mxCell>
        <mxCell id="VGlrAe6bgB-VciZrxGqc-239" value="文件头" style="text;strokeColor=none;fillColor=none;html=1;fontSize=13;fontStyle=0;verticalAlign=middle;align=center;" vertex="1" parent="VGlrAe6bgB-VciZrxGqc-205">
          <mxGeometry x="270" width="100" height="40" as="geometry" />
        </mxCell>
        <mxCell id="VGlrAe6bgB-VciZrxGqc-240" value="文件尾" style="text;strokeColor=none;fillColor=none;html=1;fontSize=13;fontStyle=0;verticalAlign=middle;align=center;" vertex="1" parent="VGlrAe6bgB-VciZrxGqc-205">
          <mxGeometry x="270" y="571" width="100" height="40" as="geometry" />
        </mxCell>
        <mxCell id="VGlrAe6bgB-VciZrxGqc-241" style="edgeStyle=orthogonalEdgeStyle;rounded=0;orthogonalLoop=1;jettySize=auto;html=1;exitX=1;exitY=0.5;exitDx=0;exitDy=0;entryX=1;entryY=0.5;entryDx=0;entryDy=0;" edge="1" parent="VGlrAe6bgB-VciZrxGqc-205">
          <mxGeometry relative="1" as="geometry">
            <mxPoint x="290" y="374" as="sourcePoint" />
            <mxPoint x="290" y="574" as="targetPoint" />
            <Array as="points">
              <mxPoint x="290" y="384" />
              <mxPoint x="350" y="384" />
              <mxPoint x="350" y="574" />
            </Array>
          </mxGeometry>
        </mxCell>
      </root>
    </mxGraphModel>
  </diagram>
</mxfile>
